<?xml version="1.0" encoding="UTF-8" standalone="no"?><svg xmlns="http://www.w3.org/2000/svg" xmlns:xlink="http://www.w3.org/1999/xlink" clip-rule="evenodd" stroke-miterlimit="10" viewBox="0 0 1920 1080"><desc>SVG generated by Keynote</desc><defs></defs><g transform="matrix(1.00, 0.00, -0.00, -1.00, 0.0, 1080.0)"><path d="M 0.0 1080.0 L 1920.0 1080.0 L 1920.0 0.0 L 0.0 0.0 Z M 0.0 1080.0 " fill="#143232"></path><g><clipPath id="clip0x7fa06ab823f0"><path d="M -5.2 1069.5 L 640.8 1069.5 L 640.8 1088.7 L -5.2 1088.7 Z M -5.2 1069.5 "></path></clipPath><g clip-path="url(#clip0x7fa06ab823f0)"><path d="M -4.0 1088.0 L 640.0 1088.0 L 640.0 1071.0 L -4.0 1071.0 Z M -4.2 1087.7 " fill="#1F9693"></path></g></g><g><clipPath id="clip0x7fa06ab83af0"><path d="M 636.1 1069.5 L 1282.1 1069.5 L 1282.1 1088.7 L 636.1 1088.7 Z M 636.1 1069.5 "></path></clipPath><g clip-path="url(#clip0x7fa06ab83af0)"><path d="M 637.0 1088.0 L 1281.0 1088.0 L 1281.0 1071.0 L 637.0 1071.0 Z M 637.1 1087.7 " fill="#57AA46"></path></g></g><g><clipPath id="clip0x7fa06ab848a0"><path d="M 1279.2 1069.5 L 1925.2 1069.5 L 1925.2 1088.7 L 1279.2 1088.7 Z M 1279.2 1069.5 "></path></clipPath><g clip-path="url(#clip0x7fa06ab848a0)"><path d="M 1280.0 1088.0 L 1924.0 1088.0 L 1924.0 1071.0 L 1280.0 1071.0 Z M 1280.2 1087.7 " fill="#D0D834"></path></g></g><text xml:space="preserve" font-family="AvenirNext-Regular,Avenir Next" font-size="80.0" fill="#5EDAFA" transform="matrix(1.00, 0.00, -0.00, -1.00, 324.7, 893.9)">i</text><text xml:space="preserve" font-family="AvenirNext-Regular,Avenir Next" font-size="80.0" fill="#5EDAFA" transform="matrix(1.00, 0.00, -0.00, -1.00, 344.7, 893.9)">C</text><text xml:space="preserve" font-family="AvenirNext-Regular,Avenir Next" font-size="80.0" fill="#5EDAFA" transform="matrix(1.00, 0.00, -0.00, -1.00, 400.9, 893.9)">a</text><text xml:space="preserve" font-family="AvenirNext-Regular,Avenir Next" font-size="80.0" fill="#5EDAFA" transform="matrix(1.00, 0.00, -0.00, -1.00, 443.6, 893.9)">l</text><text xml:space="preserve" font-family="AvenirNext-Regular,Avenir Next" font-size="80.0" fill="#5EDAFA" transform="matrix(1.00, 0.00, -0.00, -1.00, 463.8, 893.9)">e</text><text xml:space="preserve" font-family="AvenirNext-Regular,Avenir Next" font-size="80.0" fill="#5EDAFA" transform="matrix(1.00, 0.00, -0.00, -1.00, 509.5, 893.9)">n</text><text xml:space="preserve" font-family="AvenirNext-Regular,Avenir Next" font-size="80.0" fill="#5EDAFA" transform="matrix(1.00, 0.00, -0.00, -1.00, 556.0, 893.9)">d</text><text xml:space="preserve" font-family="AvenirNext-Regular,Avenir Next" font-size="80.0" fill="#5EDAFA" transform="matrix(1.00, 0.00, -0.00, -1.00, 607.0, 893.9)">a</text><text xml:space="preserve" font-family="AvenirNext-Regular,Avenir Next" font-size="80.0" fill="#5EDAFA" transform="matrix(1.00, 0.00, -0.00, -1.00, 649.7, 893.9)">r</text><text xml:space="preserve" font-family="AvenirNext-Regular,Avenir Next" font-size="80.0" fill="#5EDAFA" transform="matrix(1.00, 0.00, -0.00, -1.00, 678.5, 893.9)"> </text><text xml:space="preserve" font-family="AvenirNext-Regular,Avenir Next" font-size="80.0" fill="#5EDAFA" transform="matrix(1.00, 0.00, -0.00, -1.00, 698.5, 893.9)">o</text><text xml:space="preserve" font-family="AvenirNext-Regular,Avenir Next" font-size="80.0" fill="#5EDAFA" transform="matrix(1.00, 0.00, -0.00, -1.00, 747.4, 893.9)">b</text><text xml:space="preserve" font-family="AvenirNext-Regular,Avenir Next" font-size="80.0" fill="#5EDAFA" transform="matrix(1.00, 0.00, -0.00, -1.00, 798.3, 893.9)">j</text><text xml:space="preserve" font-family="AvenirNext-Regular,Avenir Next" font-size="80.0" fill="#5EDAFA" transform="matrix(1.00, 0.00, -0.00, -1.00, 818.4, 893.9)">e</text><text xml:space="preserve" font-family="AvenirNext-Regular,Avenir Next" font-size="80.0" fill="#5EDAFA" transform="matrix(1.00, 0.00, -0.00, -1.00, 864.2, 893.9)">c</text><text xml:space="preserve" font-family="AvenirNext-Regular,Avenir Next" font-size="80.0" fill="#5EDAFA" transform="matrix(1.00, 0.00, -0.00, -1.00, 904.2, 893.9)">t</text><text xml:space="preserve" font-family="AvenirNext-Regular,Avenir Next" font-size="80.0" fill="#5EDAFA" transform="matrix(1.00, 0.00, -0.00, -1.00, 929.5, 893.9)">s</text><text xml:space="preserve" font-family="AvenirNext-Regular,Avenir Next" font-size="80.0" fill="#5EDAFA" transform="matrix(1.00, 0.00, -0.00, -1.00, 965.0, 893.9)"> </text><text xml:space="preserve" font-family="AvenirNext-Regular,Avenir Next" font-size="80.0" fill="#5EDAFA" transform="matrix(1.00, 0.00, -0.00, -1.00, 985.0, 893.9)">s</text><text xml:space="preserve" font-family="AvenirNext-Regular,Avenir Next" font-size="80.0" fill="#5EDAFA" transform="matrix(1.00, 0.00, -0.00, -1.00, 1020.6, 893.9)">u</text><text xml:space="preserve" font-family="AvenirNext-Regular,Avenir Next" font-size="80.0" fill="#5EDAFA" transform="matrix(1.00, 0.00, -0.00, -1.00, 1067.0, 893.9)">p</text><text xml:space="preserve" font-family="AvenirNext-Regular,Avenir Next" font-size="80.0" fill="#5EDAFA" transform="matrix(1.00, 0.00, -0.00, -1.00, 1117.8, 893.9)">p</text><text xml:space="preserve" font-family="AvenirNext-Regular,Avenir Next" font-size="80.0" fill="#5EDAFA" transform="matrix(1.00, 0.00, -0.00, -1.00, 1168.6, 893.9)">o</text><text xml:space="preserve" font-family="AvenirNext-Regular,Avenir Next" font-size="80.0" fill="#5EDAFA" transform="matrix(1.00, 0.00, -0.00, -1.00, 1217.5, 893.9)">r</text><text xml:space="preserve" font-family="AvenirNext-Regular,Avenir Next" font-size="80.0" fill="#5EDAFA" transform="matrix(1.00, 0.00, -0.00, -1.00, 1245.4, 893.9)">t</text><text xml:space="preserve" font-family="AvenirNext-Regular,Avenir Next" font-size="80.0" fill="#5EDAFA" transform="matrix(1.00, 0.00, -0.00, -1.00, 1270.7, 893.9)"> </text><text xml:space="preserve" font-family="AvenirNext-Regular,Avenir Next" font-size="80.0" fill="#5EDAFA" transform="matrix(1.00, 0.00, -0.00, -1.00, 1290.7, 893.9)">m</text><text xml:space="preserve" font-family="AvenirNext-Regular,Avenir Next" font-size="80.0" fill="#5EDAFA" transform="matrix(1.00, 0.00, -0.00, -1.00, 1361.4, 893.9)">e</text><text xml:space="preserve" font-family="AvenirNext-Regular,Avenir Next" font-size="80.0" fill="#5EDAFA" transform="matrix(1.00, 0.00, -0.00, -1.00, 1407.1, 893.9)">e</text><text xml:space="preserve" font-family="AvenirNext-Regular,Avenir Next" font-size="80.0" fill="#5EDAFA" transform="matrix(1.00, 0.00, -0.00, -1.00, 1452.9, 893.9)">t</text><text xml:space="preserve" font-family="AvenirNext-Regular,Avenir Next" font-size="80.0" fill="#5EDAFA" transform="matrix(1.00, 0.00, -0.00, -1.00, 1478.2, 893.9)">i</text><text xml:space="preserve" font-family="AvenirNext-Regular,Avenir Next" font-size="80.0" fill="#5EDAFA" transform="matrix(1.00, 0.00, -0.00, -1.00, 1498.2, 893.9)">n</text><text xml:space="preserve" font-family="AvenirNext-Regular,Avenir Next" font-size="80.0" fill="#5EDAFA" transform="matrix(1.00, 0.00, -0.00, -1.00, 1544.7, 893.9)">g</text><text xml:space="preserve" font-family="AvenirNext-Regular,Avenir Next" font-size="80.0" fill="#5EDAFA" transform="matrix(1.00, 0.00, -0.00, -1.00, 1595.3, 893.9)"> </text><text xml:space="preserve" font-family="AvenirNext-Regular,Avenir Next" font-size="80.0" fill="#5EDAFA" transform="matrix(1.00, 0.00, -0.00, -1.00, 330.6, 784.9)">i</text><text xml:space="preserve" font-family="AvenirNext-Regular,Avenir Next" font-size="80.0" fill="#5EDAFA" transform="matrix(1.00, 0.00, -0.00, -1.00, 350.6, 784.9)">n</text><text xml:space="preserve" font-family="AvenirNext-Regular,Avenir Next" font-size="80.0" fill="#5EDAFA" transform="matrix(1.00, 0.00, -0.00, -1.00, 397.1, 784.9)">v</text><text xml:space="preserve" font-family="AvenirNext-Regular,Avenir Next" font-size="80.0" fill="#5EDAFA" transform="matrix(1.00, 0.00, -0.00, -1.00, 436.1, 784.9)">i</text><text xml:space="preserve" font-family="AvenirNext-Regular,Avenir Next" font-size="80.0" fill="#5EDAFA" transform="matrix(1.00, 0.00, -0.00, -1.00, 456.1, 784.9)">t</text><text xml:space="preserve" font-family="AvenirNext-Regular,Avenir Next" font-size="80.0" fill="#5EDAFA" transform="matrix(1.00, 0.00, -0.00, -1.00, 481.5, 784.9)">e</text><text xml:space="preserve" font-family="AvenirNext-Regular,Avenir Next" font-size="80.0" fill="#5EDAFA" transform="matrix(1.00, 0.00, -0.00, -1.00, 527.2, 784.9)">s</text><text xml:space="preserve" font-family="AvenirNext-Regular,Avenir Next" font-size="80.0" fill="#5EDAFA" transform="matrix(1.00, 0.00, -0.00, -1.00, 562.8, 784.9)"> </text><text xml:space="preserve" font-family="AvenirNext-Regular,Avenir Next" font-size="80.0" fill="#5EDAFA" transform="matrix(1.00, 0.00, -0.00, -1.00, 582.8, 784.9)">v</text><text xml:space="preserve" font-family="AvenirNext-Regular,Avenir Next" font-size="80.0" fill="#5EDAFA" transform="matrix(1.00, 0.00, -0.00, -1.00, 621.8, 784.9)">i</text><text xml:space="preserve" font-family="AvenirNext-Regular,Avenir Next" font-size="80.0" fill="#5EDAFA" transform="matrix(1.00, 0.00, -0.00, -1.00, 641.8, 784.9)">a</text><text xml:space="preserve" font-family="AvenirNext-Regular,Avenir Next" font-size="80.0" fill="#5EDAFA" transform="matrix(1.00, 0.00, -0.00, -1.00, 684.5, 784.9)"> </text><text xml:space="preserve" font-family="AvenirNext-Regular,Avenir Next" font-size="80.0" fill="#5EDAFA" transform="matrix(1.00, 0.00, -0.00, -1.00, 704.5, 784.9)">m</text><text xml:space="preserve" font-family="AvenirNext-Regular,Avenir Next" font-size="80.0" fill="#5EDAFA" transform="matrix(1.00, 0.00, -0.00, -1.00, 775.2, 784.9)">e</text><text xml:space="preserve" font-family="AvenirNext-Regular,Avenir Next" font-size="80.0" fill="#5EDAFA" transform="matrix(1.00, 0.00, -0.00, -1.00, 820.9, 784.9)">t</text><text xml:space="preserve" font-family="AvenirNext-Regular,Avenir Next" font-size="80.0" fill="#5EDAFA" transform="matrix(1.00, 0.00, -0.00, -1.00, 846.3, 784.9)">h</text><text xml:space="preserve" font-family="AvenirNext-Regular,Avenir Next" font-size="80.0" fill="#5EDAFA" transform="matrix(1.00, 0.00, -0.00, -1.00, 892.9, 784.9)">o</text><text xml:space="preserve" font-family="AvenirNext-Regular,Avenir Next" font-size="80.0" fill="#5EDAFA" transform="matrix(1.00, 0.00, -0.00, -1.00, 941.8, 784.9)">d</text><text xml:space="preserve" font-family="AvenirNext-Regular,Avenir Next" font-size="80.0" fill="#5EDAFA" transform="matrix(1.00, 0.00, -0.00, -1.00, 992.8, 784.9)">s</text><text xml:space="preserve" font-family="AvenirNext-Regular,Avenir Next" font-size="80.0" fill="#5EDAFA" transform="matrix(1.00, 0.00, -0.00, -1.00, 1028.3, 784.9)">,</text><text xml:space="preserve" font-family="AvenirNext-Regular,Avenir Next" font-size="80.0" fill="#5EDAFA" transform="matrix(1.00, 0.00, -0.00, -1.00, 1046.7, 784.9)"> </text><text xml:space="preserve" font-family="AvenirNext-Regular,Avenir Next" font-size="80.0" fill="#5EDAFA" transform="matrix(1.00, 0.00, -0.00, -1.00, 1066.7, 784.9)">d</text><text xml:space="preserve" font-family="AvenirNext-Regular,Avenir Next" font-size="80.0" fill="#5EDAFA" transform="matrix(1.00, 0.00, -0.00, -1.00, 1117.6, 784.9)">e</text><text xml:space="preserve" font-family="AvenirNext-Regular,Avenir Next" font-size="80.0" fill="#5EDAFA" transform="matrix(1.00, 0.00, -0.00, -1.00, 1163.4, 784.9)">ï¬</text><text xml:space="preserve" font-family="AvenirNext-Regular,Avenir Next" font-size="80.0" fill="#5EDAFA" transform="matrix(1.00, 0.00, -0.00, -1.00, 1206.9, 784.9)">n</text><text xml:space="preserve" font-family="AvenirNext-Regular,Avenir Next" font-size="80.0" fill="#5EDAFA" transform="matrix(1.00, 0.00, -0.00, -1.00, 1253.4, 784.9)">e</text><text xml:space="preserve" font-family="AvenirNext-Regular,Avenir Next" font-size="80.0" fill="#5EDAFA" transform="matrix(1.00, 0.00, -0.00, -1.00, 1299.2, 784.9)">d</text><text xml:space="preserve" font-family="AvenirNext-Regular,Avenir Next" font-size="80.0" fill="#5EDAFA" transform="matrix(1.00, 0.00, -0.00, -1.00, 1350.1, 784.9)"> </text><text xml:space="preserve" font-family="AvenirNext-Regular,Avenir Next" font-size="80.0" fill="#5EDAFA" transform="matrix(1.00, 0.00, -0.00, -1.00, 1370.1, 784.9)">i</text><text xml:space="preserve" font-family="AvenirNext-Regular,Avenir Next" font-size="80.0" fill="#5EDAFA" transform="matrix(1.00, 0.00, -0.00, -1.00, 1390.1, 784.9)">n</text><text xml:space="preserve" font-family="AvenirNext-Regular,Avenir Next" font-size="80.0" fill="#5EDAFA" transform="matrix(1.00, 0.00, -0.00, -1.00, 1436.6, 784.9)"> </text><text xml:space="preserve" font-family="AvenirNext-Regular,Avenir Next" font-size="80.0" fill="#5EDAFA" transform="matrix(1.00, 0.00, -0.00, -1.00, 1456.6, 784.9)">i</text><text xml:space="preserve" font-family="AvenirNext-Regular,Avenir Next" font-size="80.0" fill="#5EDAFA" transform="matrix(1.00, 0.00, -0.00, -1.00, 1476.6, 784.9)">T</text><text xml:space="preserve" font-family="AvenirNext-Regular,Avenir Next" font-size="80.0" fill="#5EDAFA" transform="matrix(1.00, 0.00, -0.00, -1.00, 1522.2, 784.9)">I</text><text xml:space="preserve" font-family="AvenirNext-Regular,Avenir Next" font-size="80.0" fill="#5EDAFA" transform="matrix(1.00, 0.00, -0.00, -1.00, 1543.0, 784.9)">P</text><image xlink:href="D59ACC70077707241C2B606D705437A9.jpeg" width="1396.00" height="1222.00" transform="matrix(0.53, 0.00, -0.00, -0.53, 589.0, 715.0)"></image><text xml:space="preserve" font-family="AvenirNext-Regular,Avenir Next" font-size="60.0" fill="#5EDAFA" transform="matrix(1.00, 0.00, -0.00, -1.00, 242.9, 441.0)">(</text><text xml:space="preserve" font-family="AvenirNext-Regular,Avenir Next" font-size="60.0" fill="#5EDAFA" transform="matrix(1.00, 0.00, -0.00, -1.00, 260.9, 441.0)">R</text><text xml:space="preserve" font-family="AvenirNext-Regular,Avenir Next" font-size="60.0" fill="#5EDAFA" transform="matrix(1.00, 0.00, -0.00, -1.00, 296.9, 441.0)">F</text><text xml:space="preserve" font-family="AvenirNext-Regular,Avenir Next" font-size="60.0" fill="#5EDAFA" transform="matrix(1.00, 0.00, -0.00, -1.00, 330.6, 441.0)">C</text><text xml:space="preserve" font-family="AvenirNext-Regular,Avenir Next" font-size="60.0" fill="#5EDAFA" transform="matrix(1.00, 0.00, -0.00, -1.00, 373.8, 441.0)"> </text><text xml:space="preserve" font-family="AvenirNext-Regular,Avenir Next" font-size="60.0" fill="#5EDAFA" transform="matrix(1.00, 0.00, -0.00, -1.00, 388.8, 441.0)">5</text><text xml:space="preserve" font-family="AvenirNext-Regular,Avenir Next" font-size="60.0" fill="#5EDAFA" transform="matrix(1.00, 0.00, -0.00, -1.00, 423.6, 441.0)">5</text><text xml:space="preserve" font-family="AvenirNext-Regular,Avenir Next" font-size="60.0" fill="#5EDAFA" transform="matrix(1.00, 0.00, -0.00, -1.00, 458.4, 441.0)">4</text><text xml:space="preserve" font-family="AvenirNext-Regular,Avenir Next" font-size="60.0" fill="#5EDAFA" transform="matrix(1.00, 0.00, -0.00, -1.00, 493.2, 441.0)">6</text><text xml:space="preserve" font-family="AvenirNext-Regular,Avenir Next" font-size="60.0" fill="#5EDAFA" transform="matrix(1.00, 0.00, -0.00, -1.00, 528.0, 441.0)">)</text></g></svg>