<?xml version="1.0" encoding="UTF-8" standalone="no"?><svg xmlns="http://www.w3.org/2000/svg" xmlns:xlink="http://www.w3.org/1999/xlink" clip-rule="evenodd" stroke-miterlimit="10" viewBox="0 0 1920 1080"><desc>SVG generated by Keynote</desc><defs></defs><g transform="matrix(1.00, 0.00, -0.00, -1.00, 0.0, 1080.0)"><path d="M 0.0 1080.0 L 1920.0 1080.0 L 1920.0 0.0 L 0.0 0.0 Z M 0.0 1080.0 " fill="#143232"></path><g><clipPath id="clip0x7fa06ab31f30"><path d="M -5.2 1069.5 L 640.8 1069.5 L 640.8 1088.7 L -5.2 1088.7 Z M -5.2 1069.5 "></path></clipPath><g clip-path="url(#clip0x7fa06ab31f30)"><path d="M -4.0 1088.0 L 640.0 1088.0 L 640.0 1071.0 L -4.0 1071.0 Z M -4.2 1087.7 " fill="#1F9693"></path></g></g><g><clipPath id="clip0x7fa06ab42380"><path d="M 636.1 1069.5 L 1282.1 1069.5 L 1282.1 1088.7 L 636.1 1088.7 Z M 636.1 1069.5 "></path></clipPath><g clip-path="url(#clip0x7fa06ab42380)"><path d="M 637.0 1088.0 L 1281.0 1088.0 L 1281.0 1071.0 L 637.0 1071.0 Z M 637.1 1087.7 " fill="#57AA46"></path></g></g><g><clipPath id="clip0x7fa06ab48ac0"><path d="M 1279.2 1069.5 L 1925.2 1069.5 L 1925.2 1088.7 L 1279.2 1088.7 Z M 1279.2 1069.5 "></path></clipPath><g clip-path="url(#clip0x7fa06ab48ac0)"><path d="M 1280.0 1088.0 L 1924.0 1088.0 L 1924.0 1071.0 L 1280.0 1071.0 Z M 1280.2 1087.7 " fill="#D0D834"></path></g></g><image xlink:href="../../093E0824-23F9-44C0-9B55-03464DDB8C9F/assets/CE29A9A541609EC5411692F920D71316.png" width="1202.00" height="1190.00" transform="matrix(0.91, 0.00, -0.00, -0.91, 415.0, 1080.0)"></image></g></svg>