<?xml version="1.0" encoding="UTF-8" standalone="no"?><svg xmlns="http://www.w3.org/2000/svg" xmlns:xlink="http://www.w3.org/1999/xlink" clip-rule="evenodd" stroke-miterlimit="10" viewBox="0 0 907 86"><desc>SVG generated by Keynote</desc><defs></defs><g transform="matrix(1.00, 0.00, -0.00, -1.00, 0.0, 86.0)"><text xml:space="preserve" font-family="AvenirNext-Regular,Avenir Next" font-size="82.0" fill="#5EDAFA" transform="matrix(1.00, 0.00, -0.00, -1.00, -5.2, 21.5)">M</text><text xml:space="preserve" font-family="AvenirNext-Regular,Avenir Next" font-size="82.0" fill="#5EDAFA" transform="matrix(1.00, 0.00, -0.00, -1.00, 67.5, 21.5)">e</text><text xml:space="preserve" font-family="AvenirNext-Regular,Avenir Next" font-size="82.0" fill="#5EDAFA" transform="matrix(1.00, 0.00, -0.00, -1.00, 114.4, 21.5)">e</text><text xml:space="preserve" font-family="AvenirNext-Regular,Avenir Next" font-size="82.0" fill="#5EDAFA" transform="matrix(1.00, 0.00, -0.00, -1.00, 161.3, 21.5)">t</text><text xml:space="preserve" font-family="AvenirNext-Regular,Avenir Next" font-size="82.0" fill="#5EDAFA" transform="matrix(1.00, 0.00, -0.00, -1.00, 187.3, 21.5)">i</text><text xml:space="preserve" font-family="AvenirNext-Regular,Avenir Next" font-size="82.0" fill="#5EDAFA" transform="matrix(1.00, 0.00, -0.00, -1.00, 207.8, 21.5)">n</text><text xml:space="preserve" font-family="AvenirNext-Regular,Avenir Next" font-size="82.0" fill="#5EDAFA" transform="matrix(1.00, 0.00, -0.00, -1.00, 255.4, 21.5)">g</text><text xml:space="preserve" font-family="AvenirNext-Regular,Avenir Next" font-size="82.0" fill="#5EDAFA" transform="matrix(1.00, 0.00, -0.00, -1.00, 307.2, 21.5)"> </text><text xml:space="preserve" font-family="AvenirNext-Regular,Avenir Next" font-size="82.0" fill="#5EDAFA" transform="matrix(1.00, 0.00, -0.00, -1.00, 327.7, 21.5)">i</text><text xml:space="preserve" font-family="AvenirNext-Regular,Avenir Next" font-size="82.0" fill="#5EDAFA" transform="matrix(1.00, 0.00, -0.00, -1.00, 348.2, 21.5)">n</text><text xml:space="preserve" font-family="AvenirNext-Regular,Avenir Next" font-size="82.0" fill="#5EDAFA" transform="matrix(1.00, 0.00, -0.00, -1.00, 395.9, 21.5)">v</text><text xml:space="preserve" font-family="AvenirNext-Regular,Avenir Next" font-size="82.0" fill="#5EDAFA" transform="matrix(1.00, 0.00, -0.00, -1.00, 435.9, 21.5)">i</text><text xml:space="preserve" font-family="AvenirNext-Regular,Avenir Next" font-size="82.0" fill="#5EDAFA" transform="matrix(1.00, 0.00, -0.00, -1.00, 456.4, 21.5)">t</text><text xml:space="preserve" font-family="AvenirNext-Regular,Avenir Next" font-size="82.0" fill="#5EDAFA" transform="matrix(1.00, 0.00, -0.00, -1.00, 482.4, 21.5)">e</text><text xml:space="preserve" font-family="AvenirNext-Regular,Avenir Next" font-size="82.0" fill="#5EDAFA" transform="matrix(1.00, 0.00, -0.00, -1.00, 529.3, 21.5)">s</text><text xml:space="preserve" font-family="AvenirNext-Regular,Avenir Next" font-size="82.0" fill="#5EDAFA" transform="matrix(1.00, 0.00, -0.00, -1.00, 565.7, 21.5)"> </text><text xml:space="preserve" font-family="AvenirNext-Regular,Avenir Next" font-size="82.0" fill="#5EDAFA" transform="matrix(1.00, 0.00, -0.00, -1.00, 586.2, 21.5)">a</text><text xml:space="preserve" font-family="AvenirNext-Regular,Avenir Next" font-size="82.0" fill="#5EDAFA" transform="matrix(1.00, 0.00, -0.00, -1.00, 630.0, 21.5)">r</text><text xml:space="preserve" font-family="AvenirNext-Regular,Avenir Next" font-size="82.0" fill="#5EDAFA" transform="matrix(1.00, 0.00, -0.00, -1.00, 658.0, 21.5)">e</text><text xml:space="preserve" font-family="AvenirNext-Regular,Avenir Next" font-size="82.0" fill="#5EDAFA" transform="matrix(1.00, 0.00, -0.00, -1.00, 704.9, 21.5)"> </text><text xml:space="preserve" font-family="AvenirNext-Regular,Avenir Next" font-size="82.0" fill="#5EDAFA" transform="matrix(1.00, 0.00, -0.00, -1.00, 725.4, 21.5)">c</text><text xml:space="preserve" font-family="AvenirNext-Regular,Avenir Next" font-size="82.0" fill="#5EDAFA" transform="matrix(1.00, 0.00, -0.00, -1.00, 766.4, 21.5)">o</text><text xml:space="preserve" font-family="AvenirNext-Regular,Avenir Next" font-size="82.0" fill="#5EDAFA" transform="matrix(1.00, 0.00, -0.00, -1.00, 816.5, 21.5)">o</text><text xml:space="preserve" font-family="AvenirNext-Regular,Avenir Next" font-size="82.0" fill="#5EDAFA" transform="matrix(1.00, 0.00, -0.00, -1.00, 866.6, 21.5)">l</text><text xml:space="preserve" font-family="AvenirNext-Regular,Avenir Next" font-size="82.0" fill="#5EDAFA" transform="matrix(1.00, 0.00, -0.00, -1.00, 887.3, 21.5)">!</text></g></svg>