<?xml version="1.0" encoding="UTF-8" standalone="no"?><svg xmlns="http://www.w3.org/2000/svg" xmlns:xlink="http://www.w3.org/1999/xlink" clip-rule="evenodd" stroke-miterlimit="10" viewBox="0 0 674 80"><desc>SVG generated by Keynote</desc><defs></defs><g transform="matrix(1.00, 0.00, -0.00, -1.00, 0.0, 80.0)"><text xml:space="preserve" font-family="AvenirNext-Regular,Avenir Next" font-size="82.0" fill="#5EDAFA" transform="matrix(1.00, 0.00, -0.00, -1.00, -0.3, 15.5)">(</text><text xml:space="preserve" font-family="AvenirNext-Regular,Avenir Next" font-size="82.0" fill="#5EDAFA" transform="matrix(1.00, 0.00, -0.00, -1.00, 24.3, 15.5)">i</text><text xml:space="preserve" font-family="AvenirNext-Regular,Avenir Next" font-size="82.0" fill="#5EDAFA" transform="matrix(1.00, 0.00, -0.00, -1.00, 44.8, 15.5)">n</text><text xml:space="preserve" font-family="AvenirNext-Regular,Avenir Next" font-size="82.0" fill="#5EDAFA" transform="matrix(1.00, 0.00, -0.00, -1.00, 92.4, 15.5)">s</text><text xml:space="preserve" font-family="AvenirNext-Regular,Avenir Next" font-size="82.0" fill="#5EDAFA" transform="matrix(1.00, 0.00, -0.00, -1.00, 128.8, 15.5)">e</text><text xml:space="preserve" font-family="AvenirNext-Regular,Avenir Next" font-size="82.0" fill="#5EDAFA" transform="matrix(1.00, 0.00, -0.00, -1.00, 175.7, 15.5)">r</text><text xml:space="preserve" font-family="AvenirNext-Regular,Avenir Next" font-size="82.0" fill="#5EDAFA" transform="matrix(1.00, 0.00, -0.00, -1.00, 204.2, 15.5)">t</text><text xml:space="preserve" font-family="AvenirNext-Regular,Avenir Next" font-size="82.0" fill="#5EDAFA" transform="matrix(1.00, 0.00, -0.00, -1.00, 230.2, 15.5)"> </text><text xml:space="preserve" font-family="AvenirNext-Regular,Avenir Next" font-size="82.0" fill="#5EDAFA" transform="matrix(1.00, 0.00, -0.00, -1.00, 250.7, 15.5)">v</text><text xml:space="preserve" font-family="AvenirNext-Regular,Avenir Next" font-size="82.0" fill="#5EDAFA" transform="matrix(1.00, 0.00, -0.00, -1.00, 290.8, 15.5)">i</text><text xml:space="preserve" font-family="AvenirNext-Regular,Avenir Next" font-size="82.0" fill="#5EDAFA" transform="matrix(1.00, 0.00, -0.00, -1.00, 311.3, 15.5)">d</text><text xml:space="preserve" font-family="AvenirNext-Regular,Avenir Next" font-size="82.0" fill="#5EDAFA" transform="matrix(1.00, 0.00, -0.00, -1.00, 363.5, 15.5)">e</text><text xml:space="preserve" font-family="AvenirNext-Regular,Avenir Next" font-size="82.0" fill="#5EDAFA" transform="matrix(1.00, 0.00, -0.00, -1.00, 410.4, 15.5)">o</text><text xml:space="preserve" font-family="AvenirNext-Regular,Avenir Next" font-size="82.0" fill="#5EDAFA" transform="matrix(1.00, 0.00, -0.00, -1.00, 460.5, 15.5)"> </text><text xml:space="preserve" font-family="AvenirNext-Regular,Avenir Next" font-size="82.0" fill="#5EDAFA" transform="matrix(1.00, 0.00, -0.00, -1.00, 481.0, 15.5)">h</text><text xml:space="preserve" font-family="AvenirNext-Regular,Avenir Next" font-size="82.0" fill="#5EDAFA" transform="matrix(1.00, 0.00, -0.00, -1.00, 528.8, 15.5)">e</text><text xml:space="preserve" font-family="AvenirNext-Regular,Avenir Next" font-size="82.0" fill="#5EDAFA" transform="matrix(1.00, 0.00, -0.00, -1.00, 575.7, 15.5)">r</text><text xml:space="preserve" font-family="AvenirNext-Regular,Avenir Next" font-size="82.0" fill="#5EDAFA" transform="matrix(1.00, 0.00, -0.00, -1.00, 603.8, 15.5)">e</text><text xml:space="preserve" font-family="AvenirNext-Regular,Avenir Next" font-size="82.0" fill="#5EDAFA" transform="matrix(1.00, 0.00, -0.00, -1.00, 650.7, 15.5)">)</text></g></svg>