<?xml version="1.0" encoding="UTF-8" standalone="no"?><svg xmlns="http://www.w3.org/2000/svg" xmlns:xlink="http://www.w3.org/1999/xlink" clip-rule="evenodd" stroke-miterlimit="10" viewBox="0 0 444 96"><desc>SVG generated by Keynote</desc><defs></defs><g transform="matrix(1.00, 0.00, -0.00, -1.00, 0.0, 96.0)"><text xml:space="preserve" font-family="AvenirNext-Regular,Avenir Next" font-size="120.0" fill="#5EDAFA" transform="matrix(1.00, 0.00, -0.00, -1.00, 0.0, 3.5)">T</text><text xml:space="preserve" font-family="AvenirNext-Regular,Avenir Next" font-size="120.0" fill="#5EDAFA" transform="matrix(1.00, 0.00, -0.00, -1.00, 66.2, 3.5)">h</text><text xml:space="preserve" font-family="AvenirNext-Regular,Avenir Next" font-size="120.0" fill="#5EDAFA" transform="matrix(1.00, 0.00, -0.00, -1.00, 136.2, 3.5)">i</text><text xml:space="preserve" font-family="AvenirNext-Regular,Avenir Next" font-size="120.0" fill="#5EDAFA" transform="matrix(1.00, 0.00, -0.00, -1.00, 166.2, 3.5)">s</text><text xml:space="preserve" font-family="AvenirNext-Regular,Avenir Next" font-size="120.0" fill="#5EDAFA" transform="matrix(1.00, 0.00, -0.00, -1.00, 219.5, 3.5)"> </text><text xml:space="preserve" font-family="AvenirNext-Regular,Avenir Next" font-size="120.0" fill="#5EDAFA" transform="matrix(1.00, 0.00, -0.00, -1.00, 249.5, 3.5)">t</text><text xml:space="preserve" font-family="AvenirNext-Regular,Avenir Next" font-size="120.0" fill="#5EDAFA" transform="matrix(1.00, 0.00, -0.00, -1.00, 287.5, 3.5)">a</text><text xml:space="preserve" font-family="AvenirNext-Regular,Avenir Next" font-size="120.0" fill="#5EDAFA" transform="matrix(1.00, 0.00, -0.00, -1.00, 351.6, 3.5)">l</text><text xml:space="preserve" font-family="AvenirNext-Regular,Avenir Next" font-size="120.0" fill="#5EDAFA" transform="matrix(1.00, 0.00, -0.00, -1.00, 381.8, 3.5)">k</text></g></svg>