<?xml version="1.0" encoding="UTF-8" standalone="no"?><svg xmlns="http://www.w3.org/2000/svg" xmlns:xlink="http://www.w3.org/1999/xlink" clip-rule="evenodd" stroke-miterlimit="10" viewBox="0 0 1920 1080"><desc>SVG generated by Keynote</desc><defs></defs><g transform="matrix(1.00, 0.00, -0.00, -1.00, 0.0, 1080.0)"><path d="M 0.0 1080.0 L 1920.0 1080.0 L 1920.0 0.0 L 0.0 0.0 Z M 0.0 1080.0 " fill="#FEFFFF"></path><g><clipPath id="clip0x7fa0673b3920"><path d="M 0.0 1149.0 L 1920.0 1149.0 L 1920.0 -3.0 L 0.0 -3.0 Z M 0.0 1149.3 "></path></clipPath><g clip-path="url(#clip0x7fa0673b3920)"><image xlink:href="AFCC8C26104B40EBC3791232CD08E475.jpeg" width="2000.00" height="1200.00" transform="matrix(0.96, 0.00, -0.00, -0.96, 0.0, 1149.0)"></image></g></g><text xml:space="preserve" font-family="AvenirNext-Regular,Avenir Next" font-size="80.0" fill="#D0D834" transform="matrix(1.00, 0.00, -0.00, -1.00, 466.7, 153.6)">Y</text><text xml:space="preserve" font-family="AvenirNext-Regular,Avenir Next" font-size="80.0" fill="#D0D834" transform="matrix(1.00, 0.00, -0.00, -1.00, 507.7, 153.6)">o</text><text xml:space="preserve" font-family="AvenirNext-Regular,Avenir Next" font-size="80.0" fill="#D0D834" transform="matrix(1.00, 0.00, -0.00, -1.00, 556.6, 153.6)">u</text><text xml:space="preserve" font-family="AvenirNext-Regular,Avenir Next" font-size="80.0" fill="#D0D834" transform="matrix(1.00, 0.00, -0.00, -1.00, 603.1, 153.6)">r</text><text xml:space="preserve" font-family="AvenirNext-Regular,Avenir Next" font-size="80.0" fill="#D0D834" transform="matrix(1.00, 0.00, -0.00, -1.00, 631.9, 153.6)"> </text><text xml:space="preserve" font-family="AvenirNext-Regular,Avenir Next" font-size="80.0" fill="#D0D834" transform="matrix(1.00, 0.00, -0.00, -1.00, 651.9, 153.6)">N</text><text xml:space="preserve" font-family="AvenirNext-Regular,Avenir Next" font-size="80.0" fill="#D0D834" transform="matrix(1.00, 0.00, -0.00, -1.00, 713.0, 153.6)">a</text><text xml:space="preserve" font-family="AvenirNext-Regular,Avenir Next" font-size="80.0" fill="#D0D834" transform="matrix(1.00, 0.00, -0.00, -1.00, 755.7, 153.6)">m</text><text xml:space="preserve" font-family="AvenirNext-Regular,Avenir Next" font-size="80.0" fill="#D0D834" transform="matrix(1.00, 0.00, -0.00, -1.00, 826.3, 153.6)">e</text><text xml:space="preserve" font-family="AvenirNext-Regular,Avenir Next" font-size="80.0" fill="#D0D834" transform="matrix(1.00, 0.00, -0.00, -1.00, 872.1, 153.6)"> </text><text xml:space="preserve" font-family="AvenirNext-Regular,Avenir Next" font-size="80.0" fill="#D0D834" transform="matrix(1.00, 0.00, -0.00, -1.00, 892.1, 153.6)"> </text><text xml:space="preserve" font-family="AvenirNext-Regular,Avenir Next" font-size="80.0" fill="#D0D834" transform="matrix(1.00, 0.00, -0.00, -1.00, 912.1, 153.6)">|</text><text xml:space="preserve" font-family="AvenirNext-Regular,Avenir Next" font-size="80.0" fill="#D0D834" transform="matrix(1.00, 0.00, -0.00, -1.00, 929.9, 153.6)"> </text><text xml:space="preserve" font-family="AvenirNext-Regular,Avenir Next" font-size="80.0" fill="#D0D834" transform="matrix(1.00, 0.00, -0.00, -1.00, 949.9, 153.6)"> </text><text xml:space="preserve" font-family="AvenirNext-Regular,Avenir Next" font-size="80.0" fill="#D0D834" transform="matrix(1.00, 0.00, -0.00, -1.00, 969.9, 153.6)">@</text><text xml:space="preserve" font-family="AvenirNext-Regular,Avenir Next" font-size="80.0" fill="#D0D834" transform="matrix(1.00, 0.00, -0.00, -1.00, 1033.9, 153.6)">y</text><text xml:space="preserve" font-family="AvenirNext-Regular,Avenir Next" font-size="80.0" fill="#D0D834" transform="matrix(1.00, 0.00, -0.00, -1.00, 1072.9, 153.6)">o</text><text xml:space="preserve" font-family="AvenirNext-Regular,Avenir Next" font-size="80.0" fill="#D0D834" transform="matrix(1.00, 0.00, -0.00, -1.00, 1121.8, 153.6)">u</text><text xml:space="preserve" font-family="AvenirNext-Regular,Avenir Next" font-size="80.0" fill="#D0D834" transform="matrix(1.00, 0.00, -0.00, -1.00, 1168.3, 153.6)">r</text><text xml:space="preserve" font-family="AvenirNext-Regular,Avenir Next" font-size="80.0" fill="#D0D834" transform="matrix(1.00, 0.00, -0.00, -1.00, 1197.1, 153.6)">n</text><text xml:space="preserve" font-family="AvenirNext-Regular,Avenir Next" font-size="80.0" fill="#D0D834" transform="matrix(1.00, 0.00, -0.00, -1.00, 1243.5, 153.6)">a</text><text xml:space="preserve" font-family="AvenirNext-Regular,Avenir Next" font-size="80.0" fill="#D0D834" transform="matrix(1.00, 0.00, -0.00, -1.00, 1286.3, 153.6)">m</text><text xml:space="preserve" font-family="AvenirNext-Regular,Avenir Next" font-size="80.0" fill="#D0D834" transform="matrix(1.00, 0.00, -0.00, -1.00, 1356.9, 153.6)">e</text><text xml:space="preserve" font-family="AvenirNext-Regular,Avenir Next" font-size="80.0" fill="#D0D834" transform="matrix(1.00, 0.00, -0.00, -1.00, 1402.7, 153.6)"> </text><text xml:space="preserve" font-family="AvenirNext-Regular,Avenir Next" font-size="80.0" fill="#D0D834" transform="matrix(1.00, 0.00, -0.00, -1.00, 1422.7, 153.6)"> </text><text xml:space="preserve" font-family="AvenirNext-Regular,Avenir Next" font-size="80.0" fill="#D0D834" transform="matrix(1.00, 0.00, -0.00, -1.00, 1442.7, 153.6)">|</text><text xml:space="preserve" font-family="AvenirNext-Regular,Avenir Next" font-size="80.0" fill="#D0D834" transform="matrix(1.00, 0.00, -0.00, -1.00, 1460.4, 153.6)"> </text><text xml:space="preserve" font-family="AvenirNext-Regular,Avenir Next" font-size="80.0" fill="#D0D834" transform="matrix(1.00, 0.00, -0.00, -1.00, 1480.4, 153.6)"> </text><text xml:space="preserve" font-family="AvenirNext-Regular,Avenir Next" font-size="80.0" fill="#D0D834" transform="matrix(1.00, 0.00, -0.00, -1.00, 1500.4, 153.6)">y</text><text xml:space="preserve" font-family="AvenirNext-Regular,Avenir Next" font-size="80.0" fill="#D0D834" transform="matrix(1.00, 0.00, -0.00, -1.00, 1539.5, 153.6)">o</text><text xml:space="preserve" font-family="AvenirNext-Regular,Avenir Next" font-size="80.0" fill="#D0D834" transform="matrix(1.00, 0.00, -0.00, -1.00, 1588.3, 153.6)">u</text><text xml:space="preserve" font-family="AvenirNext-Regular,Avenir Next" font-size="80.0" fill="#D0D834" transform="matrix(1.00, 0.00, -0.00, -1.00, 1634.8, 153.6)">@</text><text xml:space="preserve" font-family="AvenirNext-Regular,Avenir Next" font-size="80.0" fill="#D0D834" transform="matrix(1.00, 0.00, -0.00, -1.00, 1698.8, 153.6)">n</text><text xml:space="preserve" font-family="AvenirNext-Regular,Avenir Next" font-size="80.0" fill="#D0D834" transform="matrix(1.00, 0.00, -0.00, -1.00, 1745.3, 153.6)">y</text><text xml:space="preserve" font-family="AvenirNext-Regular,Avenir Next" font-size="80.0" fill="#D0D834" transform="matrix(1.00, 0.00, -0.00, -1.00, 1784.3, 153.6)">l</text><text xml:space="preserve" font-family="AvenirNext-Regular,Avenir Next" font-size="80.0" fill="#D0D834" transform="matrix(1.00, 0.00, -0.00, -1.00, 1804.5, 153.6)">a</text><text xml:space="preserve" font-family="AvenirNext-Regular,Avenir Next" font-size="80.0" fill="#D0D834" transform="matrix(1.00, 0.00, -0.00, -1.00, 1847.2, 153.6)">s</text><text xml:space="preserve" font-family="AvenirNext-Regular,Avenir Next" font-size="80.0" fill="#D0D834" transform="matrix(1.00, 0.00, -0.00, -1.00, 1882.7, 153.6)">.</text><text xml:space="preserve" font-family="AvenirNext-Regular,Avenir Next" font-size="80.0" fill="#D0D834" transform="matrix(1.00, 0.00, -0.00, -1.00, 1903.5, 153.6)">c</text><text xml:space="preserve" font-family="AvenirNext-Regular,Avenir Next" font-size="80.0" fill="#D0D834" transform="matrix(1.00, 0.00, -0.00, -1.00, 1943.5, 153.6)">o</text><text xml:space="preserve" font-family="AvenirNext-Regular,Avenir Next" font-size="80.0" fill="#D0D834" transform="matrix(1.00, 0.00, -0.00, -1.00, 1992.4, 153.6)">m</text><text xml:space="preserve" font-family="AvenirNext-Regular,Avenir Next" font-size="80.0" fill="#D0D834" transform="matrix(1.00, 0.00, -0.00, -1.00, 761.7, 74.7)">g</text><text xml:space="preserve" font-family="AvenirNext-Regular,Avenir Next" font-size="80.0" fill="#D0D834" transform="matrix(1.00, 0.00, -0.00, -1.00, 812.3, 74.7)">i</text><text xml:space="preserve" font-family="AvenirNext-Regular,Avenir Next" font-size="80.0" fill="#D0D834" transform="matrix(1.00, 0.00, -0.00, -1.00, 832.3, 74.7)">t</text><text xml:space="preserve" font-family="AvenirNext-Regular,Avenir Next" font-size="80.0" fill="#D0D834" transform="matrix(1.00, 0.00, -0.00, -1.00, 857.6, 74.7)">h</text><text xml:space="preserve" font-family="AvenirNext-Regular,Avenir Next" font-size="80.0" fill="#D0D834" transform="matrix(1.00, 0.00, -0.00, -1.00, 904.3, 74.7)">u</text><text xml:space="preserve" font-family="AvenirNext-Regular,Avenir Next" font-size="80.0" fill="#D0D834" transform="matrix(1.00, 0.00, -0.00, -1.00, 950.8, 74.7)">b</text><text xml:space="preserve" font-family="AvenirNext-Regular,Avenir Next" font-size="80.0" fill="#D0D834" transform="matrix(1.00, 0.00, -0.00, -1.00, 1000.8, 74.7)">.</text><text xml:space="preserve" font-family="AvenirNext-Regular,Avenir Next" font-size="80.0" fill="#D0D834" transform="matrix(1.00, 0.00, -0.00, -1.00, 1021.6, 74.7)">c</text><text xml:space="preserve" font-family="AvenirNext-Regular,Avenir Next" font-size="80.0" fill="#D0D834" transform="matrix(1.00, 0.00, -0.00, -1.00, 1061.6, 74.7)">o</text><text xml:space="preserve" font-family="AvenirNext-Regular,Avenir Next" font-size="80.0" fill="#D0D834" transform="matrix(1.00, 0.00, -0.00, -1.00, 1110.4, 74.7)">m</text><text xml:space="preserve" font-family="AvenirNext-Regular,Avenir Next" font-size="80.0" fill="#D0D834" transform="matrix(1.00, 0.00, -0.00, -1.00, 1181.1, 74.7)">/</text><text xml:space="preserve" font-family="AvenirNext-Regular,Avenir Next" font-size="80.0" fill="#D0D834" transform="matrix(1.00, 0.00, -0.00, -1.00, 1210.7, 74.7)">n</text><text xml:space="preserve" font-family="AvenirNext-Regular,Avenir Next" font-size="80.0" fill="#D0D834" transform="matrix(1.00, 0.00, -0.00, -1.00, 1257.2, 74.7)">y</text><text xml:space="preserve" font-family="AvenirNext-Regular,Avenir Next" font-size="80.0" fill="#D0D834" transform="matrix(1.00, 0.00, -0.00, -1.00, 1296.2, 74.7)">l</text><text xml:space="preserve" font-family="AvenirNext-Regular,Avenir Next" font-size="80.0" fill="#D0D834" transform="matrix(1.00, 0.00, -0.00, -1.00, 1316.4, 74.7)">a</text><text xml:space="preserve" font-family="AvenirNext-Regular,Avenir Next" font-size="80.0" fill="#D0D834" transform="matrix(1.00, 0.00, -0.00, -1.00, 1359.1, 74.7)">s</text><g><clipPath id="clip0x7fa06caa93f0"><path d="M 0.0 1149.0 L 1920.0 1149.0 L 1920.0 -3.0 L 0.0 -3.0 Z M 0.0 1149.3 "></path></clipPath><g clip-path="url(#clip0x7fa06caa93f0)"><image xlink:href="../../E1AC5B8B-B6C3-4D50-B45A-1F9D0A62BF45/assets/AFCC8C26104B40EBC3791232CD08E475.jpeg" width="2000.00" height="1200.00" transform="matrix(0.96, 0.00, -0.00, -0.96, 0.0, 1149.0)"></image></g></g><text xml:space="preserve" font-family="AvenirNext-Regular,Avenir Next" font-size="50.0" fill="#D0D834" transform="matrix(1.00, 0.00, -0.00, -1.00, 427.7, 163.1)">C</text><text xml:space="preserve" font-family="AvenirNext-Regular,Avenir Next" font-size="50.0" fill="#D0D834" transform="matrix(1.00, 0.00, -0.00, -1.00, 463.7, 163.1)">h</text><text xml:space="preserve" font-family="AvenirNext-Regular,Avenir Next" font-size="50.0" fill="#D0D834" transform="matrix(1.00, 0.00, -0.00, -1.00, 492.9, 163.1)">r</text><text xml:space="preserve" font-family="AvenirNext-Regular,Avenir Next" font-size="50.0" fill="#D0D834" transform="matrix(1.00, 0.00, -0.00, -1.00, 510.9, 163.1)">i</text><text xml:space="preserve" font-family="AvenirNext-Regular,Avenir Next" font-size="50.0" fill="#D0D834" transform="matrix(1.00, 0.00, -0.00, -1.00, 523.4, 163.1)">s</text><text xml:space="preserve" font-family="AvenirNext-Regular,Avenir Next" font-size="50.0" fill="#D0D834" transform="matrix(1.00, 0.00, -0.00, -1.00, 545.6, 163.1)">t</text><text xml:space="preserve" font-family="AvenirNext-Regular,Avenir Next" font-size="50.0" fill="#D0D834" transform="matrix(1.00, 0.00, -0.00, -1.00, 561.4, 163.1)">i</text><text xml:space="preserve" font-family="AvenirNext-Regular,Avenir Next" font-size="50.0" fill="#D0D834" transform="matrix(1.00, 0.00, -0.00, -1.00, 573.9, 163.1)">n</text><text xml:space="preserve" font-family="AvenirNext-Regular,Avenir Next" font-size="50.0" fill="#D0D834" transform="matrix(1.00, 0.00, -0.00, -1.00, 603.0, 163.1)">e</text><text xml:space="preserve" font-family="AvenirNext-Regular,Avenir Next" font-size="50.0" fill="#D0D834" transform="matrix(1.00, 0.00, -0.00, -1.00, 631.6, 163.1)"> </text><text xml:space="preserve" font-family="AvenirNext-Regular,Avenir Next" font-size="50.0" fill="#D0D834" transform="matrix(1.00, 0.00, -0.00, -1.00, 644.1, 163.1)">S</text><text xml:space="preserve" font-family="AvenirNext-Regular,Avenir Next" font-size="50.0" fill="#D0D834" transform="matrix(1.00, 0.00, -0.00, -1.00, 672.2, 163.1)">p</text><text xml:space="preserve" font-family="AvenirNext-Regular,Avenir Next" font-size="50.0" fill="#D0D834" transform="matrix(1.00, 0.00, -0.00, -1.00, 704.0, 163.1)">a</text><text xml:space="preserve" font-family="AvenirNext-Regular,Avenir Next" font-size="50.0" fill="#D0D834" transform="matrix(1.00, 0.00, -0.00, -1.00, 730.7, 163.1)">n</text><text xml:space="preserve" font-family="AvenirNext-Regular,Avenir Next" font-size="50.0" fill="#D0D834" transform="matrix(1.00, 0.00, -0.00, -1.00, 759.8, 163.1)">g</text><text xml:space="preserve" font-family="AvenirNext-Regular,Avenir Next" font-size="50.0" fill="#D0D834" transform="matrix(1.00, 0.00, -0.00, -1.00, 791.4, 163.1)"> </text><text xml:space="preserve" font-family="AvenirNext-Regular,Avenir Next" font-size="50.0" fill="#D0D834" transform="matrix(1.00, 0.00, -0.00, -1.00, 803.9, 163.1)">|</text><text xml:space="preserve" font-family="AvenirNext-Regular,Avenir Next" font-size="50.0" fill="#D0D834" transform="matrix(1.00, 0.00, -0.00, -1.00, 815.0, 163.1)"> </text><text xml:space="preserve" font-family="AvenirNext-Regular,Avenir Next" font-size="50.0" fill="#D0D834" transform="matrix(1.00, 0.00, -0.00, -1.00, 827.5, 163.1)"> </text><text xml:space="preserve" font-family="AvenirNext-Regular,Avenir Next" font-size="50.0" fill="#D0D834" transform="matrix(1.00, 0.00, -0.00, -1.00, 840.0, 163.1)">@</text><text xml:space="preserve" font-family="AvenirNext-Regular,Avenir Next" font-size="50.0" fill="#D0D834" transform="matrix(1.00, 0.00, -0.00, -1.00, 880.0, 163.1)">s</text><text xml:space="preserve" font-family="AvenirNext-Regular,Avenir Next" font-size="50.0" fill="#D0D834" transform="matrix(1.00, 0.00, -0.00, -1.00, 902.2, 163.1)">p</text><text xml:space="preserve" font-family="AvenirNext-Regular,Avenir Next" font-size="50.0" fill="#D0D834" transform="matrix(1.00, 0.00, -0.00, -1.00, 933.9, 163.1)">a</text><text xml:space="preserve" font-family="AvenirNext-Regular,Avenir Next" font-size="50.0" fill="#D0D834" transform="matrix(1.00, 0.00, -0.00, -1.00, 960.6, 163.1)">n</text><text xml:space="preserve" font-family="AvenirNext-Regular,Avenir Next" font-size="50.0" fill="#D0D834" transform="matrix(1.00, 0.00, -0.00, -1.00, 989.7, 163.1)">g</text><text xml:space="preserve" font-family="AvenirNext-Regular,Avenir Next" font-size="50.0" fill="#D0D834" transform="matrix(1.00, 0.00, -0.00, -1.00, 1021.3, 163.1)"> </text><text xml:space="preserve" font-family="AvenirNext-Regular,Avenir Next" font-size="50.0" fill="#D0D834" transform="matrix(1.00, 0.00, -0.00, -1.00, 1033.8, 163.1)"> </text><text xml:space="preserve" font-family="AvenirNext-Regular,Avenir Next" font-size="50.0" fill="#D0D834" transform="matrix(1.00, 0.00, -0.00, -1.00, 1046.2, 163.1)">|</text><text xml:space="preserve" font-family="AvenirNext-Regular,Avenir Next" font-size="50.0" fill="#D0D834" transform="matrix(1.00, 0.00, -0.00, -1.00, 1057.4, 163.1)"> </text><text xml:space="preserve" font-family="AvenirNext-Regular,Avenir Next" font-size="50.0" fill="#D0D834" transform="matrix(1.00, 0.00, -0.00, -1.00, 1069.9, 163.1)"> </text><text xml:space="preserve" font-family="AvenirNext-Regular,Avenir Next" font-size="50.0" fill="#D0D834" transform="matrix(1.00, 0.00, -0.00, -1.00, 1082.3, 163.1)">s</text><text xml:space="preserve" font-family="AvenirNext-Regular,Avenir Next" font-size="50.0" fill="#D0D834" transform="matrix(1.00, 0.00, -0.00, -1.00, 1104.6, 163.1)">p</text><text xml:space="preserve" font-family="AvenirNext-Regular,Avenir Next" font-size="50.0" fill="#D0D834" transform="matrix(1.00, 0.00, -0.00, -1.00, 1136.3, 163.1)">a</text><text xml:space="preserve" font-family="AvenirNext-Regular,Avenir Next" font-size="50.0" fill="#D0D834" transform="matrix(1.00, 0.00, -0.00, -1.00, 1163.0, 163.1)">n</text><text xml:space="preserve" font-family="AvenirNext-Regular,Avenir Next" font-size="50.0" fill="#D0D834" transform="matrix(1.00, 0.00, -0.00, -1.00, 1192.1, 163.1)">g</text><text xml:space="preserve" font-family="AvenirNext-Regular,Avenir Next" font-size="50.0" fill="#D0D834" transform="matrix(1.00, 0.00, -0.00, -1.00, 1223.7, 163.1)">@</text><text xml:space="preserve" font-family="AvenirNext-Regular,Avenir Next" font-size="50.0" fill="#D0D834" transform="matrix(1.00, 0.00, -0.00, -1.00, 1263.7, 163.1)">n</text><text xml:space="preserve" font-family="AvenirNext-Regular,Avenir Next" font-size="50.0" fill="#D0D834" transform="matrix(1.00, 0.00, -0.00, -1.00, 1292.7, 163.1)">y</text><text xml:space="preserve" font-family="AvenirNext-Regular,Avenir Next" font-size="50.0" fill="#D0D834" transform="matrix(1.00, 0.00, -0.00, -1.00, 1317.1, 163.1)">l</text><text xml:space="preserve" font-family="AvenirNext-Regular,Avenir Next" font-size="50.0" fill="#D0D834" transform="matrix(1.00, 0.00, -0.00, -1.00, 1329.7, 163.1)">a</text><text xml:space="preserve" font-family="AvenirNext-Regular,Avenir Next" font-size="50.0" fill="#D0D834" transform="matrix(1.00, 0.00, -0.00, -1.00, 1356.4, 163.1)">s</text><text xml:space="preserve" font-family="AvenirNext-Regular,Avenir Next" font-size="50.0" fill="#D0D834" transform="matrix(1.00, 0.00, -0.00, -1.00, 1378.6, 163.1)">.</text><text xml:space="preserve" font-family="AvenirNext-Regular,Avenir Next" font-size="50.0" fill="#D0D834" transform="matrix(1.00, 0.00, -0.00, -1.00, 1391.6, 163.1)">c</text><text xml:space="preserve" font-family="AvenirNext-Regular,Avenir Next" font-size="50.0" fill="#D0D834" transform="matrix(1.00, 0.00, -0.00, -1.00, 1416.6, 163.1)">o</text><text xml:space="preserve" font-family="AvenirNext-Regular,Avenir Next" font-size="50.0" fill="#D0D834" transform="matrix(1.00, 0.00, -0.00, -1.00, 1447.2, 163.1)">m</text><g><clipPath id="clip0x7fa06c854b90"><path d="M 1081.3 157.1 L 1491.3 157.1 L 1491.3 161.6 L 1081.3 161.6 Z M 1081.3 157.1 "></path></clipPath><g clip-path="url(#clip0x7fa06c854b90)"><path d="M 658.6 57.5 L 1067.6 57.5 " fill="none" stroke="#D0D834" stroke-width="2.50" transform="matrix(1.00, 0.00, 0.00, -1.00, 423.7, 216.8)"></path></g></g><text xml:space="preserve" font-family="AvenirNext-Regular,Avenir Next" font-size="50.0" fill="#D0D834" transform="matrix(1.00, 0.00, -0.00, -1.00, 515.8, 84.2)">g</text><text xml:space="preserve" font-family="AvenirNext-Regular,Avenir Next" font-size="50.0" fill="#D0D834" transform="matrix(1.00, 0.00, -0.00, -1.00, 547.4, 84.2)">i</text><text xml:space="preserve" font-family="AvenirNext-Regular,Avenir Next" font-size="50.0" fill="#D0D834" transform="matrix(1.00, 0.00, -0.00, -1.00, 559.9, 84.2)">t</text><text xml:space="preserve" font-family="AvenirNext-Regular,Avenir Next" font-size="50.0" fill="#D0D834" transform="matrix(1.00, 0.00, -0.00, -1.00, 575.7, 84.2)">h</text><text xml:space="preserve" font-family="AvenirNext-Regular,Avenir Next" font-size="50.0" fill="#D0D834" transform="matrix(1.00, 0.00, -0.00, -1.00, 604.9, 84.2)">u</text><text xml:space="preserve" font-family="AvenirNext-Regular,Avenir Next" font-size="50.0" fill="#D0D834" transform="matrix(1.00, 0.00, -0.00, -1.00, 633.9, 84.2)">b</text><text xml:space="preserve" font-family="AvenirNext-Regular,Avenir Next" font-size="50.0" fill="#D0D834" transform="matrix(1.00, 0.00, -0.00, -1.00, 665.1, 84.2)">.</text><text xml:space="preserve" font-family="AvenirNext-Regular,Avenir Next" font-size="50.0" fill="#D0D834" transform="matrix(1.00, 0.00, -0.00, -1.00, 678.1, 84.2)">c</text><text xml:space="preserve" font-family="AvenirNext-Regular,Avenir Next" font-size="50.0" fill="#D0D834" transform="matrix(1.00, 0.00, -0.00, -1.00, 703.1, 84.2)">o</text><text xml:space="preserve" font-family="AvenirNext-Regular,Avenir Next" font-size="50.0" fill="#D0D834" transform="matrix(1.00, 0.00, -0.00, -1.00, 733.7, 84.2)">m</text><text xml:space="preserve" font-family="AvenirNext-Regular,Avenir Next" font-size="50.0" fill="#D0D834" transform="matrix(1.00, 0.00, -0.00, -1.00, 777.9, 84.2)">/</text><text xml:space="preserve" font-family="AvenirNext-Regular,Avenir Next" font-size="50.0" fill="#D0D834" transform="matrix(1.00, 0.00, -0.00, -1.00, 796.4, 84.2)">s</text><text xml:space="preserve" font-family="AvenirNext-Regular,Avenir Next" font-size="50.0" fill="#D0D834" transform="matrix(1.00, 0.00, -0.00, -1.00, 818.5, 84.2)">p</text><text xml:space="preserve" font-family="AvenirNext-Regular,Avenir Next" font-size="50.0" fill="#D0D834" transform="matrix(1.00, 0.00, -0.00, -1.00, 850.3, 84.2)">a</text><text xml:space="preserve" font-family="AvenirNext-Regular,Avenir Next" font-size="50.0" fill="#D0D834" transform="matrix(1.00, 0.00, -0.00, -1.00, 877.0, 84.2)">n</text><text xml:space="preserve" font-family="AvenirNext-Regular,Avenir Next" font-size="50.0" fill="#D0D834" transform="matrix(1.00, 0.00, -0.00, -1.00, 906.0, 84.2)">g</text><text xml:space="preserve" font-family="AvenirNext-Regular,Avenir Next" font-size="50.0" fill="#D0D834" transform="matrix(1.00, 0.00, -0.00, -1.00, 937.7, 84.2)">/</text><text xml:space="preserve" font-family="AvenirNext-Regular,Avenir Next" font-size="50.0" fill="#D0D834" transform="matrix(1.00, 0.00, -0.00, -1.00, 956.2, 84.2)">m</text><text xml:space="preserve" font-family="AvenirNext-Regular,Avenir Next" font-size="50.0" fill="#D0D834" transform="matrix(1.00, 0.00, -0.00, -1.00, 1000.3, 84.2)">e</text><text xml:space="preserve" font-family="AvenirNext-Regular,Avenir Next" font-size="50.0" fill="#D0D834" transform="matrix(1.00, 0.00, -0.00, -1.00, 1028.9, 84.2)">e</text><text xml:space="preserve" font-family="AvenirNext-Regular,Avenir Next" font-size="50.0" fill="#D0D834" transform="matrix(1.00, 0.00, -0.00, -1.00, 1057.5, 84.2)">t</text><text xml:space="preserve" font-family="AvenirNext-Regular,Avenir Next" font-size="50.0" fill="#D0D834" transform="matrix(1.00, 0.00, -0.00, -1.00, 1073.4, 84.2)">i</text><text xml:space="preserve" font-family="AvenirNext-Regular,Avenir Next" font-size="50.0" fill="#D0D834" transform="matrix(1.00, 0.00, -0.00, -1.00, 1085.9, 84.2)">n</text><text xml:space="preserve" font-family="AvenirNext-Regular,Avenir Next" font-size="50.0" fill="#D0D834" transform="matrix(1.00, 0.00, -0.00, -1.00, 1114.9, 84.2)">g</text><text xml:space="preserve" font-family="AvenirNext-Regular,Avenir Next" font-size="50.0" fill="#D0D834" transform="matrix(1.00, 0.00, -0.00, -1.00, 1146.5, 84.2)">-</text><text xml:space="preserve" font-family="AvenirNext-Regular,Avenir Next" font-size="50.0" fill="#D0D834" transform="matrix(1.00, 0.00, -0.00, -1.00, 1162.5, 84.2)">i</text><text xml:space="preserve" font-family="AvenirNext-Regular,Avenir Next" font-size="50.0" fill="#D0D834" transform="matrix(1.00, 0.00, -0.00, -1.00, 1175.0, 84.2)">n</text><text xml:space="preserve" font-family="AvenirNext-Regular,Avenir Next" font-size="50.0" fill="#D0D834" transform="matrix(1.00, 0.00, -0.00, -1.00, 1204.1, 84.2)">v</text><text xml:space="preserve" font-family="AvenirNext-Regular,Avenir Next" font-size="50.0" fill="#D0D834" transform="matrix(1.00, 0.00, -0.00, -1.00, 1228.5, 84.2)">i</text><text xml:space="preserve" font-family="AvenirNext-Regular,Avenir Next" font-size="50.0" fill="#D0D834" transform="matrix(1.00, 0.00, -0.00, -1.00, 1241.0, 84.2)">t</text><text xml:space="preserve" font-family="AvenirNext-Regular,Avenir Next" font-size="50.0" fill="#D0D834" transform="matrix(1.00, 0.00, -0.00, -1.00, 1256.8, 84.2)">e</text><text xml:space="preserve" font-family="AvenirNext-Regular,Avenir Next" font-size="50.0" fill="#D0D834" transform="matrix(1.00, 0.00, -0.00, -1.00, 1285.4, 84.2)">s</text><text xml:space="preserve" font-family="AvenirNext-Regular,Avenir Next" font-size="50.0" fill="#D0D834" transform="matrix(1.00, 0.00, -0.00, -1.00, 1307.6, 84.2)">-</text><text xml:space="preserve" font-family="AvenirNext-Regular,Avenir Next" font-size="50.0" fill="#D0D834" transform="matrix(1.00, 0.00, -0.00, -1.00, 1323.6, 84.2)">t</text><text xml:space="preserve" font-family="AvenirNext-Regular,Avenir Next" font-size="50.0" fill="#D0D834" transform="matrix(1.00, 0.00, -0.00, -1.00, 1339.5, 84.2)">a</text><text xml:space="preserve" font-family="AvenirNext-Regular,Avenir Next" font-size="50.0" fill="#D0D834" transform="matrix(1.00, 0.00, -0.00, -1.00, 1366.2, 84.2)">l</text><text xml:space="preserve" font-family="AvenirNext-Regular,Avenir Next" font-size="50.0" fill="#D0D834" transform="matrix(1.00, 0.00, -0.00, -1.00, 1378.8, 84.2)">k</text><g><clipPath id="clip0x7fa06c863b00"><path d="M 514.8 78.2 L 1404.2 78.2 L 1404.2 82.7 L 514.8 82.7 Z M 514.8 78.2 "></path></clipPath><g clip-path="url(#clip0x7fa06c863b00)"><path d="M 4.5 57.5 L 893.0 57.5 " fill="none" stroke="#D0D834" stroke-width="2.50" transform="matrix(1.00, 0.00, 0.00, -1.00, 511.2, 137.9)"></path></g></g></g></svg>