<?xml version="1.0" encoding="UTF-8" standalone="no"?><svg xmlns="http://www.w3.org/2000/svg" xmlns:xlink="http://www.w3.org/1999/xlink" clip-rule="evenodd" stroke-miterlimit="10" viewBox="0 0 1920 1080"><desc>SVG generated by Keynote</desc><defs></defs><g transform="matrix(1.00, 0.00, -0.00, -1.00, 0.0, 1080.0)"><path d="M 0.0 1080.0 L 1920.0 1080.0 L 1920.0 0.0 L 0.0 0.0 Z M 0.0 1080.0 " fill="#143232"></path><g><clipPath id="clip0x7fa06ae87c90"><path d="M -5.2 1069.5 L 640.8 1069.5 L 640.8 1088.7 L -5.2 1088.7 Z M -5.2 1069.5 "></path></clipPath><g clip-path="url(#clip0x7fa06ae87c90)"><path d="M -4.0 1088.0 L 640.0 1088.0 L 640.0 1071.0 L -4.0 1071.0 Z M -4.2 1087.7 " fill="#1F9693"></path></g></g><g><clipPath id="clip0x7fa06ae8b3d0"><path d="M 636.1 1069.5 L 1282.1 1069.5 L 1282.1 1088.7 L 636.1 1088.7 Z M 636.1 1069.5 "></path></clipPath><g clip-path="url(#clip0x7fa06ae8b3d0)"><path d="M 637.0 1088.0 L 1281.0 1088.0 L 1281.0 1071.0 L 637.0 1071.0 Z M 637.1 1087.7 " fill="#57AA46"></path></g></g><g><clipPath id="clip0x7fa06ae8c170"><path d="M 1279.2 1069.5 L 1925.2 1069.5 L 1925.2 1088.7 L 1279.2 1088.7 Z M 1279.2 1069.5 "></path></clipPath><g clip-path="url(#clip0x7fa06ae8c170)"><path d="M 1280.0 1088.0 L 1924.0 1088.0 L 1924.0 1071.0 L 1280.0 1071.0 Z M 1280.2 1087.7 " fill="#D0D834"></path></g></g><text xml:space="preserve" font-family="AvenirNext-Regular,Avenir Next" font-size="61.5" fill="#5EDAFA" transform="matrix(1.00, 0.00, -0.00, -1.00, 176.6, 633.6)">•</text><text xml:space="preserve" font-family="AvenirNext-Regular,Avenir Next" font-size="82.0" fill="#5EDAFA" transform="matrix(1.00, 0.00, -0.00, -1.00, 255.4, 627.6)">i</text><text xml:space="preserve" font-family="AvenirNext-Regular,Avenir Next" font-size="82.0" fill="#5EDAFA" transform="matrix(1.00, 0.00, -0.00, -1.00, 275.9, 627.6)">T</text><text xml:space="preserve" font-family="AvenirNext-Regular,Avenir Next" font-size="82.0" fill="#5EDAFA" transform="matrix(1.00, 0.00, -0.00, -1.00, 322.7, 627.6)">I</text><text xml:space="preserve" font-family="AvenirNext-Regular,Avenir Next" font-size="82.0" fill="#5EDAFA" transform="matrix(1.00, 0.00, -0.00, -1.00, 344.0, 627.6)">P</text><text xml:space="preserve" font-family="AvenirNext-Regular,Avenir Next" font-size="82.0" fill="#5EDAFA" transform="matrix(1.00, 0.00, -0.00, -1.00, 391.6, 627.6)"> </text><text xml:space="preserve" font-family="AvenirNext-Regular,Avenir Next" font-size="82.0" fill="#5EDAFA" transform="matrix(1.00, 0.00, -0.00, -1.00, 412.1, 627.6)">a</text><text xml:space="preserve" font-family="AvenirNext-Regular,Avenir Next" font-size="82.0" fill="#5EDAFA" transform="matrix(1.00, 0.00, -0.00, -1.00, 455.9, 627.6)">d</text><text xml:space="preserve" font-family="AvenirNext-Regular,Avenir Next" font-size="82.0" fill="#5EDAFA" transform="matrix(1.00, 0.00, -0.00, -1.00, 508.1, 627.6)">a</text><text xml:space="preserve" font-family="AvenirNext-Regular,Avenir Next" font-size="82.0" fill="#5EDAFA" transform="matrix(1.00, 0.00, -0.00, -1.00, 551.9, 627.6)">p</text><text xml:space="preserve" font-family="AvenirNext-Regular,Avenir Next" font-size="82.0" fill="#5EDAFA" transform="matrix(1.00, 0.00, -0.00, -1.00, 603.9, 627.6)">t</text><text xml:space="preserve" font-family="AvenirNext-Regular,Avenir Next" font-size="82.0" fill="#5EDAFA" transform="matrix(1.00, 0.00, -0.00, -1.00, 629.9, 627.6)">e</text><text xml:space="preserve" font-family="AvenirNext-Regular,Avenir Next" font-size="82.0" fill="#5EDAFA" transform="matrix(1.00, 0.00, -0.00, -1.00, 676.8, 627.6)">d</text><text xml:space="preserve" font-family="AvenirNext-Regular,Avenir Next" font-size="82.0" fill="#5EDAFA" transform="matrix(1.00, 0.00, -0.00, -1.00, 729.1, 627.6)"> </text><text xml:space="preserve" font-family="AvenirNext-Regular,Avenir Next" font-size="82.0" fill="#5EDAFA" transform="matrix(1.00, 0.00, -0.00, -1.00, 749.6, 627.6)">t</text><text xml:space="preserve" font-family="AvenirNext-Regular,Avenir Next" font-size="82.0" fill="#5EDAFA" transform="matrix(1.00, 0.00, -0.00, -1.00, 775.6, 627.6)">o</text><text xml:space="preserve" font-family="AvenirNext-Regular,Avenir Next" font-size="82.0" fill="#5EDAFA" transform="matrix(1.00, 0.00, -0.00, -1.00, 825.7, 627.6)"> </text><text xml:space="preserve" font-family="AvenirNext-Regular,Avenir Next" font-size="82.0" fill="#5EDAFA" transform="matrix(1.00, 0.00, -0.00, -1.00, 846.2, 627.6)">u</text><text xml:space="preserve" font-family="AvenirNext-Regular,Avenir Next" font-size="82.0" fill="#5EDAFA" transform="matrix(1.00, 0.00, -0.00, -1.00, 893.8, 627.6)">s</text><text xml:space="preserve" font-family="AvenirNext-Regular,Avenir Next" font-size="82.0" fill="#5EDAFA" transform="matrix(1.00, 0.00, -0.00, -1.00, 930.2, 627.6)">e</text><text xml:space="preserve" font-family="AvenirNext-Regular,Avenir Next" font-size="82.0" fill="#5EDAFA" transform="matrix(1.00, 0.00, -0.00, -1.00, 977.1, 627.6)"> </text><text xml:space="preserve" font-family="AvenirNext-Regular,Avenir Next" font-size="82.0" fill="#5EDAFA" transform="matrix(1.00, 0.00, -0.00, -1.00, 997.6, 627.6)">e</text><text xml:space="preserve" font-family="AvenirNext-Regular,Avenir Next" font-size="82.0" fill="#5EDAFA" transform="matrix(1.00, 0.00, -0.00, -1.00, 1044.5, 627.6)">m</text><text xml:space="preserve" font-family="AvenirNext-Regular,Avenir Next" font-size="82.0" fill="#5EDAFA" transform="matrix(1.00, 0.00, -0.00, -1.00, 1116.9, 627.6)">a</text><text xml:space="preserve" font-family="AvenirNext-Regular,Avenir Next" font-size="82.0" fill="#5EDAFA" transform="matrix(1.00, 0.00, -0.00, -1.00, 1160.7, 627.6)">i</text><text xml:space="preserve" font-family="AvenirNext-Regular,Avenir Next" font-size="82.0" fill="#5EDAFA" transform="matrix(1.00, 0.00, -0.00, -1.00, 1181.2, 627.6)">l</text><text xml:space="preserve" font-family="AvenirNext-Regular,Avenir Next" font-size="82.0" fill="#5EDAFA" transform="matrix(1.00, 0.00, -0.00, -1.00, 1201.9, 627.6)"> </text><text xml:space="preserve" font-family="AvenirNext-Regular,Avenir Next" font-size="82.0" fill="#5EDAFA" transform="matrix(1.00, 0.00, -0.00, -1.00, 1222.4, 627.6)">a</text><text xml:space="preserve" font-family="AvenirNext-Regular,Avenir Next" font-size="82.0" fill="#5EDAFA" transform="matrix(1.00, 0.00, -0.00, -1.00, 1266.2, 627.6)">s</text><text xml:space="preserve" font-family="AvenirNext-Regular,Avenir Next" font-size="82.0" fill="#5EDAFA" transform="matrix(1.00, 0.00, -0.00, -1.00, 1302.6, 627.6)"> </text><text xml:space="preserve" font-family="AvenirNext-Regular,Avenir Next" font-size="82.0" fill="#5EDAFA" transform="matrix(1.00, 0.00, -0.00, -1.00, 1323.1, 627.6)">t</text><text xml:space="preserve" font-family="AvenirNext-Regular,Avenir Next" font-size="82.0" fill="#5EDAFA" transform="matrix(1.00, 0.00, -0.00, -1.00, 1349.1, 627.6)">h</text><text xml:space="preserve" font-family="AvenirNext-Regular,Avenir Next" font-size="82.0" fill="#5EDAFA" transform="matrix(1.00, 0.00, -0.00, -1.00, 1396.9, 627.6)">e</text><text xml:space="preserve" font-family="AvenirNext-Regular,Avenir Next" font-size="82.0" fill="#5EDAFA" transform="matrix(1.00, 0.00, -0.00, -1.00, 1443.8, 627.6)"> </text><text xml:space="preserve" font-family="AvenirNext-Regular,Avenir Next" font-size="82.0" fill="#5EDAFA" transform="matrix(1.00, 0.00, -0.00, -1.00, 1464.3, 627.6)">t</text><text xml:space="preserve" font-family="AvenirNext-Regular,Avenir Next" font-size="82.0" fill="#5EDAFA" transform="matrix(1.00, 0.00, -0.00, -1.00, 1490.3, 627.6)">r</text><text xml:space="preserve" font-family="AvenirNext-Regular,Avenir Next" font-size="82.0" fill="#5EDAFA" transform="matrix(1.00, 0.00, -0.00, -1.00, 1518.8, 627.6)">a</text><text xml:space="preserve" font-family="AvenirNext-Regular,Avenir Next" font-size="82.0" fill="#5EDAFA" transform="matrix(1.00, 0.00, -0.00, -1.00, 1562.6, 627.6)">n</text><text xml:space="preserve" font-family="AvenirNext-Regular,Avenir Next" font-size="82.0" fill="#5EDAFA" transform="matrix(1.00, 0.00, -0.00, -1.00, 1610.2, 627.6)">s</text><text xml:space="preserve" font-family="AvenirNext-Regular,Avenir Next" font-size="82.0" fill="#5EDAFA" transform="matrix(1.00, 0.00, -0.00, -1.00, 1646.7, 627.6)">p</text><text xml:space="preserve" font-family="AvenirNext-Regular,Avenir Next" font-size="82.0" fill="#5EDAFA" transform="matrix(1.00, 0.00, -0.00, -1.00, 1698.7, 627.6)">o</text><text xml:space="preserve" font-family="AvenirNext-Regular,Avenir Next" font-size="82.0" fill="#5EDAFA" transform="matrix(1.00, 0.00, -0.00, -1.00, 1748.8, 627.6)">r</text><text xml:space="preserve" font-family="AvenirNext-Regular,Avenir Next" font-size="82.0" fill="#5EDAFA" transform="matrix(1.00, 0.00, -0.00, -1.00, 1777.4, 627.6)">t</text><text xml:space="preserve" font-family="AvenirNext-Regular,Avenir Next" font-size="82.0" fill="#5EDAFA" transform="matrix(1.00, 0.00, -0.00, -1.00, 1803.4, 627.6)"> </text><text xml:space="preserve" font-family="AvenirNext-Regular,Avenir Next" font-size="61.5" fill="#5EDAFA" transform="matrix(1.00, 0.00, -0.00, -1.00, 176.6, 499.2)">•</text><text xml:space="preserve" font-family="AvenirNext-Regular,Avenir Next" font-size="82.0" fill="#5EDAFA" transform="matrix(1.00, 0.00, -0.00, -1.00, 255.4, 493.2)">i</text><text xml:space="preserve" font-family="AvenirNext-Regular,Avenir Next" font-size="82.0" fill="#5EDAFA" transform="matrix(1.00, 0.00, -0.00, -1.00, 275.9, 493.2)">C</text><text xml:space="preserve" font-family="AvenirNext-Regular,Avenir Next" font-size="82.0" fill="#5EDAFA" transform="matrix(1.00, 0.00, -0.00, -1.00, 333.5, 493.2)">a</text><text xml:space="preserve" font-family="AvenirNext-Regular,Avenir Next" font-size="82.0" fill="#5EDAFA" transform="matrix(1.00, 0.00, -0.00, -1.00, 377.3, 493.2)">l</text><text xml:space="preserve" font-family="AvenirNext-Regular,Avenir Next" font-size="82.0" fill="#5EDAFA" transform="matrix(1.00, 0.00, -0.00, -1.00, 398.0, 493.2)">e</text><text xml:space="preserve" font-family="AvenirNext-Regular,Avenir Next" font-size="82.0" fill="#5EDAFA" transform="matrix(1.00, 0.00, -0.00, -1.00, 444.9, 493.2)">n</text><text xml:space="preserve" font-family="AvenirNext-Regular,Avenir Next" font-size="82.0" fill="#5EDAFA" transform="matrix(1.00, 0.00, -0.00, -1.00, 492.5, 493.2)">d</text><text xml:space="preserve" font-family="AvenirNext-Regular,Avenir Next" font-size="82.0" fill="#5EDAFA" transform="matrix(1.00, 0.00, -0.00, -1.00, 544.7, 493.2)">a</text><text xml:space="preserve" font-family="AvenirNext-Regular,Avenir Next" font-size="82.0" fill="#5EDAFA" transform="matrix(1.00, 0.00, -0.00, -1.00, 588.5, 493.2)">r</text><text xml:space="preserve" font-family="AvenirNext-Regular,Avenir Next" font-size="82.0" fill="#5EDAFA" transform="matrix(1.00, 0.00, -0.00, -1.00, 618.0, 493.2)"> </text><text xml:space="preserve" font-family="AvenirNext-Regular,Avenir Next" font-size="82.0" fill="#5EDAFA" transform="matrix(1.00, 0.00, -0.00, -1.00, 638.5, 493.2)">ﬁ</text><text xml:space="preserve" font-family="AvenirNext-Regular,Avenir Next" font-size="82.0" fill="#5EDAFA" transform="matrix(1.00, 0.00, -0.00, -1.00, 683.2, 493.2)">l</text><text xml:space="preserve" font-family="AvenirNext-Regular,Avenir Next" font-size="82.0" fill="#5EDAFA" transform="matrix(1.00, 0.00, -0.00, -1.00, 703.8, 493.2)">e</text><text xml:space="preserve" font-family="AvenirNext-Regular,Avenir Next" font-size="82.0" fill="#5EDAFA" transform="matrix(1.00, 0.00, -0.00, -1.00, 750.7, 493.2)"> </text><text xml:space="preserve" font-family="AvenirNext-Regular,Avenir Next" font-size="82.0" fill="#5EDAFA" transform="matrix(1.00, 0.00, -0.00, -1.00, 771.2, 493.2)">i</text><text xml:space="preserve" font-family="AvenirNext-Regular,Avenir Next" font-size="82.0" fill="#5EDAFA" transform="matrix(1.00, 0.00, -0.00, -1.00, 791.7, 493.2)">n</text><text xml:space="preserve" font-family="AvenirNext-Regular,Avenir Next" font-size="82.0" fill="#5EDAFA" transform="matrix(1.00, 0.00, -0.00, -1.00, 839.4, 493.2)">c</text><text xml:space="preserve" font-family="AvenirNext-Regular,Avenir Next" font-size="82.0" fill="#5EDAFA" transform="matrix(1.00, 0.00, -0.00, -1.00, 880.4, 493.2)">l</text><text xml:space="preserve" font-family="AvenirNext-Regular,Avenir Next" font-size="82.0" fill="#5EDAFA" transform="matrix(1.00, 0.00, -0.00, -1.00, 901.0, 493.2)">u</text><text xml:space="preserve" font-family="AvenirNext-Regular,Avenir Next" font-size="82.0" fill="#5EDAFA" transform="matrix(1.00, 0.00, -0.00, -1.00, 948.7, 493.2)">d</text><text xml:space="preserve" font-family="AvenirNext-Regular,Avenir Next" font-size="82.0" fill="#5EDAFA" transform="matrix(1.00, 0.00, -0.00, -1.00, 1000.9, 493.2)">e</text><text xml:space="preserve" font-family="AvenirNext-Regular,Avenir Next" font-size="82.0" fill="#5EDAFA" transform="matrix(1.00, 0.00, -0.00, -1.00, 1047.8, 493.2)">d</text><text xml:space="preserve" font-family="AvenirNext-Regular,Avenir Next" font-size="82.0" fill="#5EDAFA" transform="matrix(1.00, 0.00, -0.00, -1.00, 1100.0, 493.2)"> </text><text xml:space="preserve" font-family="AvenirNext-Regular,Avenir Next" font-size="82.0" fill="#5EDAFA" transform="matrix(1.00, 0.00, -0.00, -1.00, 1120.5, 493.2)">i</text><text xml:space="preserve" font-family="AvenirNext-Regular,Avenir Next" font-size="82.0" fill="#5EDAFA" transform="matrix(1.00, 0.00, -0.00, -1.00, 1141.0, 493.2)">n</text><text xml:space="preserve" font-family="AvenirNext-Regular,Avenir Next" font-size="82.0" fill="#5EDAFA" transform="matrix(1.00, 0.00, -0.00, -1.00, 1188.7, 493.2)"> </text><text xml:space="preserve" font-family="AvenirNext-Regular,Avenir Next" font-size="82.0" fill="#5EDAFA" transform="matrix(1.00, 0.00, -0.00, -1.00, 1209.2, 493.2)">e</text><text xml:space="preserve" font-family="AvenirNext-Regular,Avenir Next" font-size="82.0" fill="#5EDAFA" transform="matrix(1.00, 0.00, -0.00, -1.00, 1256.1, 493.2)">m</text><text xml:space="preserve" font-family="AvenirNext-Regular,Avenir Next" font-size="82.0" fill="#5EDAFA" transform="matrix(1.00, 0.00, -0.00, -1.00, 1328.5, 493.2)">a</text><text xml:space="preserve" font-family="AvenirNext-Regular,Avenir Next" font-size="82.0" fill="#5EDAFA" transform="matrix(1.00, 0.00, -0.00, -1.00, 1372.3, 493.2)">i</text><text xml:space="preserve" font-family="AvenirNext-Regular,Avenir Next" font-size="82.0" fill="#5EDAFA" transform="matrix(1.00, 0.00, -0.00, -1.00, 1392.8, 493.2)">l</text><text xml:space="preserve" font-family="AvenirNext-Regular,Avenir Next" font-size="82.0" fill="#5EDAFA" transform="matrix(1.00, 0.00, -0.00, -1.00, 1413.4, 493.2)"> </text><text xml:space="preserve" font-family="AvenirNext-Regular,Avenir Next" font-size="82.0" fill="#5EDAFA" transform="matrix(1.00, 0.00, -0.00, -1.00, 1433.9, 493.2)">w</text><text xml:space="preserve" font-family="AvenirNext-Regular,Avenir Next" font-size="82.0" fill="#5EDAFA" transform="matrix(1.00, 0.00, -0.00, -1.00, 1495.1, 493.2)">i</text><text xml:space="preserve" font-family="AvenirNext-Regular,Avenir Next" font-size="82.0" fill="#5EDAFA" transform="matrix(1.00, 0.00, -0.00, -1.00, 1515.6, 493.2)">t</text><text xml:space="preserve" font-family="AvenirNext-Regular,Avenir Next" font-size="82.0" fill="#5EDAFA" transform="matrix(1.00, 0.00, -0.00, -1.00, 1541.6, 493.2)">h</text><text xml:space="preserve" font-family="AvenirNext-Regular,Avenir Next" font-size="82.0" fill="#5EDAFA" transform="matrix(1.00, 0.00, -0.00, -1.00, 1589.4, 493.2)"> </text><text xml:space="preserve" font-family="AvenirNext-Regular,Avenir Next" font-size="82.0" fill="#5EDAFA" transform="matrix(1.00, 0.00, -0.00, -1.00, 1609.9, 493.2)">M</text><text xml:space="preserve" font-family="AvenirNext-Regular,Avenir Next" font-size="82.0" fill="#5EDAFA" transform="matrix(1.00, 0.00, -0.00, -1.00, 1682.6, 493.2)">I</text><text xml:space="preserve" font-family="AvenirNext-Regular,Avenir Next" font-size="82.0" fill="#5EDAFA" transform="matrix(1.00, 0.00, -0.00, -1.00, 1703.9, 493.2)">M</text><text xml:space="preserve" font-family="AvenirNext-Regular,Avenir Next" font-size="82.0" fill="#5EDAFA" transform="matrix(1.00, 0.00, -0.00, -1.00, 1776.5, 493.2)">E</text><text xml:space="preserve" font-family="AvenirNext-Regular,Avenir Next" font-size="82.0" fill="#5EDAFA" transform="matrix(1.00, 0.00, -0.00, -1.00, 1825.1, 493.2)"> </text><text xml:space="preserve" font-family="AvenirNext-Regular,Avenir Next" font-size="82.0" fill="#5EDAFA" transform="matrix(1.00, 0.00, -0.00, -1.00, 255.4, 358.8)">C</text><text xml:space="preserve" font-family="AvenirNext-Regular,Avenir Next" font-size="82.0" fill="#5EDAFA" transform="matrix(1.00, 0.00, -0.00, -1.00, 313.5, 358.8)">o</text><text xml:space="preserve" font-family="AvenirNext-Regular,Avenir Next" font-size="82.0" fill="#5EDAFA" transform="matrix(1.00, 0.00, -0.00, -1.00, 363.6, 358.8)">n</text><text xml:space="preserve" font-family="AvenirNext-Regular,Avenir Next" font-size="82.0" fill="#5EDAFA" transform="matrix(1.00, 0.00, -0.00, -1.00, 411.2, 358.8)">t</text><text xml:space="preserve" font-family="AvenirNext-Regular,Avenir Next" font-size="82.0" fill="#5EDAFA" transform="matrix(1.00, 0.00, -0.00, -1.00, 437.2, 358.8)">e</text><text xml:space="preserve" font-family="AvenirNext-Regular,Avenir Next" font-size="82.0" fill="#5EDAFA" transform="matrix(1.00, 0.00, -0.00, -1.00, 484.1, 358.8)">n</text><text xml:space="preserve" font-family="AvenirNext-Regular,Avenir Next" font-size="82.0" fill="#5EDAFA" transform="matrix(1.00, 0.00, -0.00, -1.00, 531.8, 358.8)">t</text><text xml:space="preserve" font-family="AvenirNext-Regular,Avenir Next" font-size="82.0" fill="#5EDAFA" transform="matrix(1.00, 0.00, -0.00, -1.00, 557.8, 358.8)">-</text><text xml:space="preserve" font-family="AvenirNext-Regular,Avenir Next" font-size="82.0" fill="#5EDAFA" transform="matrix(1.00, 0.00, -0.00, -1.00, 576.6, 358.8)">T</text><text xml:space="preserve" font-family="AvenirNext-Regular,Avenir Next" font-size="82.0" fill="#5EDAFA" transform="matrix(1.00, 0.00, -0.00, -1.00, 615.5, 358.8)">y</text><text xml:space="preserve" font-family="AvenirNext-Regular,Avenir Next" font-size="82.0" fill="#5EDAFA" transform="matrix(1.00, 0.00, -0.00, -1.00, 655.5, 358.8)">p</text><text xml:space="preserve" font-family="AvenirNext-Regular,Avenir Next" font-size="82.0" fill="#5EDAFA" transform="matrix(1.00, 0.00, -0.00, -1.00, 707.6, 358.8)">e</text><text xml:space="preserve" font-family="AvenirNext-Regular,Avenir Next" font-size="82.0" fill="#5EDAFA" transform="matrix(1.00, 0.00, -0.00, -1.00, 754.5, 358.8)">:</text><text xml:space="preserve" font-family="AvenirNext-Regular,Avenir Next" font-size="82.0" fill="#5EDAFA" transform="matrix(1.00, 0.00, -0.00, -1.00, 779.1, 358.8)"> </text><text xml:space="preserve" font-family="AvenirNext-Regular,Avenir Next" font-size="82.0" fill="#5EDAFA" transform="matrix(1.00, 0.00, -0.00, -1.00, 799.6, 358.8)">`</text><text xml:space="preserve" font-family="AvenirNext-Regular,Avenir Next" font-size="82.0" fill="#5EDAFA" transform="matrix(1.00, 0.00, -0.00, -1.00, 819.3, 358.8)">t</text><text xml:space="preserve" font-family="AvenirNext-Regular,Avenir Next" font-size="82.0" fill="#5EDAFA" transform="matrix(1.00, 0.00, -0.00, -1.00, 845.3, 358.8)">e</text><text xml:space="preserve" font-family="AvenirNext-Regular,Avenir Next" font-size="82.0" fill="#5EDAFA" transform="matrix(1.00, 0.00, -0.00, -1.00, 891.7, 358.8)">x</text><text xml:space="preserve" font-family="AvenirNext-Regular,Avenir Next" font-size="82.0" fill="#5EDAFA" transform="matrix(1.00, 0.00, -0.00, -1.00, 931.4, 358.8)">t</text><text xml:space="preserve" font-family="AvenirNext-Regular,Avenir Next" font-size="82.0" fill="#5EDAFA" transform="matrix(1.00, 0.00, -0.00, -1.00, 957.4, 358.8)">/</text><text xml:space="preserve" font-family="AvenirNext-Regular,Avenir Next" font-size="82.0" fill="#5EDAFA" transform="matrix(1.00, 0.00, -0.00, -1.00, 987.7, 358.8)">c</text><text xml:space="preserve" font-family="AvenirNext-Regular,Avenir Next" font-size="82.0" fill="#5EDAFA" transform="matrix(1.00, 0.00, -0.00, -1.00, 1028.7, 358.8)">a</text><text xml:space="preserve" font-family="AvenirNext-Regular,Avenir Next" font-size="82.0" fill="#5EDAFA" transform="matrix(1.00, 0.00, -0.00, -1.00, 1072.5, 358.8)">l</text><text xml:space="preserve" font-family="AvenirNext-Regular,Avenir Next" font-size="82.0" fill="#5EDAFA" transform="matrix(1.00, 0.00, -0.00, -1.00, 1093.2, 358.8)">e</text><text xml:space="preserve" font-family="AvenirNext-Regular,Avenir Next" font-size="82.0" fill="#5EDAFA" transform="matrix(1.00, 0.00, -0.00, -1.00, 1140.1, 358.8)">n</text><text xml:space="preserve" font-family="AvenirNext-Regular,Avenir Next" font-size="82.0" fill="#5EDAFA" transform="matrix(1.00, 0.00, -0.00, -1.00, 1187.7, 358.8)">d</text><text xml:space="preserve" font-family="AvenirNext-Regular,Avenir Next" font-size="82.0" fill="#5EDAFA" transform="matrix(1.00, 0.00, -0.00, -1.00, 1239.9, 358.8)">a</text><text xml:space="preserve" font-family="AvenirNext-Regular,Avenir Next" font-size="82.0" fill="#5EDAFA" transform="matrix(1.00, 0.00, -0.00, -1.00, 1283.7, 358.8)">r</text><text xml:space="preserve" font-family="AvenirNext-Regular,Avenir Next" font-size="82.0" fill="#5EDAFA" transform="matrix(1.00, 0.00, -0.00, -1.00, 1313.2, 358.8)">`</text><text xml:space="preserve" font-family="AvenirNext-Regular,Avenir Next" font-size="82.0" fill="#5EDAFA" transform="matrix(1.00, 0.00, -0.00, -1.00, 1332.9, 358.8)"> </text><text xml:space="preserve" font-family="AvenirNext-Regular,Avenir Next" font-size="82.0" fill="#5EDAFA" transform="matrix(1.00, 0.00, -0.00, -1.00, 1353.4, 358.8)">a</text><text xml:space="preserve" font-family="AvenirNext-Regular,Avenir Next" font-size="82.0" fill="#5EDAFA" transform="matrix(1.00, 0.00, -0.00, -1.00, 1397.2, 358.8)">n</text><text xml:space="preserve" font-family="AvenirNext-Regular,Avenir Next" font-size="82.0" fill="#5EDAFA" transform="matrix(1.00, 0.00, -0.00, -1.00, 1444.9, 358.8)">d</text><text xml:space="preserve" font-family="AvenirNext-Regular,Avenir Next" font-size="82.0" fill="#5EDAFA" transform="matrix(1.00, 0.00, -0.00, -1.00, 1497.1, 358.8)"> </text><text xml:space="preserve" font-family="AvenirNext-Regular,Avenir Next" font-size="82.0" fill="#5EDAFA" transform="matrix(1.00, 0.00, -0.00, -1.00, 255.4, 224.4)">m</text><text xml:space="preserve" font-family="AvenirNext-Regular,Avenir Next" font-size="82.0" fill="#5EDAFA" transform="matrix(1.00, 0.00, -0.00, -1.00, 327.8, 224.4)">e</text><text xml:space="preserve" font-family="AvenirNext-Regular,Avenir Next" font-size="82.0" fill="#5EDAFA" transform="matrix(1.00, 0.00, -0.00, -1.00, 374.8, 224.4)">t</text><text xml:space="preserve" font-family="AvenirNext-Regular,Avenir Next" font-size="82.0" fill="#5EDAFA" transform="matrix(1.00, 0.00, -0.00, -1.00, 400.7, 224.4)">h</text><text xml:space="preserve" font-family="AvenirNext-Regular,Avenir Next" font-size="82.0" fill="#5EDAFA" transform="matrix(1.00, 0.00, -0.00, -1.00, 448.6, 224.4)">o</text><text xml:space="preserve" font-family="AvenirNext-Regular,Avenir Next" font-size="82.0" fill="#5EDAFA" transform="matrix(1.00, 0.00, -0.00, -1.00, 498.7, 224.4)">d</text><text xml:space="preserve" font-family="AvenirNext-Regular,Avenir Next" font-size="82.0" fill="#5EDAFA" transform="matrix(1.00, 0.00, -0.00, -1.00, 550.9, 224.4)">=</text><text xml:space="preserve" font-family="AvenirNext-Regular,Avenir Next" font-size="82.0" fill="#5EDAFA" transform="matrix(1.00, 0.00, -0.00, -1.00, 605.5, 224.4)">&lt;</text><text xml:space="preserve" font-family="AvenirNext-Regular,Avenir Next" font-size="82.0" fill="#5EDAFA" transform="matrix(1.00, 0.00, -0.00, -1.00, 660.1, 224.4)">M</text><text xml:space="preserve" font-family="AvenirNext-Regular,Avenir Next" font-size="82.0" fill="#5EDAFA" transform="matrix(1.00, 0.00, -0.00, -1.00, 732.8, 224.4)">E</text><text xml:space="preserve" font-family="AvenirNext-Regular,Avenir Next" font-size="82.0" fill="#5EDAFA" transform="matrix(1.00, 0.00, -0.00, -1.00, 781.3, 224.4)">T</text><text xml:space="preserve" font-family="AvenirNext-Regular,Avenir Next" font-size="82.0" fill="#5EDAFA" transform="matrix(1.00, 0.00, -0.00, -1.00, 828.0, 224.4)">H</text><text xml:space="preserve" font-family="AvenirNext-Regular,Avenir Next" font-size="82.0" fill="#5EDAFA" transform="matrix(1.00, 0.00, -0.00, -1.00, 886.9, 224.4)">O</text><text xml:space="preserve" font-family="AvenirNext-Regular,Avenir Next" font-size="82.0" fill="#5EDAFA" transform="matrix(1.00, 0.00, -0.00, -1.00, 956.6, 224.4)">D</text><text xml:space="preserve" font-family="AvenirNext-Regular,Avenir Next" font-size="82.0" fill="#5EDAFA" transform="matrix(1.00, 0.00, -0.00, -1.00, 1018.7, 224.4)">&gt;</text><text xml:space="preserve" font-family="AvenirNext-Regular,Avenir Next" font-size="82.0" fill="#5EDAFA" transform="matrix(1.00, 0.00, -0.00, -1.00, 1073.3, 224.4)"> </text><text xml:space="preserve" font-family="AvenirNext-Regular,Avenir Next" font-size="82.0" fill="#5EDAFA" transform="matrix(1.00, 0.00, -0.00, -1.00, 1093.8, 224.4)">p</text><text xml:space="preserve" font-family="AvenirNext-Regular,Avenir Next" font-size="82.0" fill="#5EDAFA" transform="matrix(1.00, 0.00, -0.00, -1.00, 1145.9, 224.4)">a</text><text xml:space="preserve" font-family="AvenirNext-Regular,Avenir Next" font-size="82.0" fill="#5EDAFA" transform="matrix(1.00, 0.00, -0.00, -1.00, 1189.7, 224.4)">r</text><text xml:space="preserve" font-family="AvenirNext-Regular,Avenir Next" font-size="82.0" fill="#5EDAFA" transform="matrix(1.00, 0.00, -0.00, -1.00, 1218.2, 224.4)">a</text><text xml:space="preserve" font-family="AvenirNext-Regular,Avenir Next" font-size="82.0" fill="#5EDAFA" transform="matrix(1.00, 0.00, -0.00, -1.00, 1262.0, 224.4)">m</text><text xml:space="preserve" font-family="AvenirNext-Regular,Avenir Next" font-size="82.0" fill="#5EDAFA" transform="matrix(1.00, 0.00, -0.00, -1.00, 1334.4, 224.4)">e</text><text xml:space="preserve" font-family="AvenirNext-Regular,Avenir Next" font-size="82.0" fill="#5EDAFA" transform="matrix(1.00, 0.00, -0.00, -1.00, 1381.3, 224.4)">t</text><text xml:space="preserve" font-family="AvenirNext-Regular,Avenir Next" font-size="82.0" fill="#5EDAFA" transform="matrix(1.00, 0.00, -0.00, -1.00, 1407.3, 224.4)">e</text><text xml:space="preserve" font-family="AvenirNext-Regular,Avenir Next" font-size="82.0" fill="#5EDAFA" transform="matrix(1.00, 0.00, -0.00, -1.00, 1454.2, 224.4)">r</text><text xml:space="preserve" font-family="AvenirNext-Regular,Avenir Next" font-size="82.0" fill="#5EDAFA" transform="matrix(1.00, 0.00, -0.00, -1.00, 176.0, 952.0)">T</text><text xml:space="preserve" font-family="AvenirNext-Regular,Avenir Next" font-size="82.0" fill="#5EDAFA" transform="matrix(1.00, 0.00, -0.00, -1.00, 221.3, 952.0)">h</text><text xml:space="preserve" font-family="AvenirNext-Regular,Avenir Next" font-size="82.0" fill="#5EDAFA" transform="matrix(1.00, 0.00, -0.00, -1.00, 269.1, 952.0)">e</text><text xml:space="preserve" font-family="AvenirNext-Regular,Avenir Next" font-size="82.0" fill="#5EDAFA" transform="matrix(1.00, 0.00, -0.00, -1.00, 316.0, 952.0)"> </text><text xml:space="preserve" font-family="AvenirNext-Regular,Avenir Next" font-size="82.0" fill="#5EDAFA" transform="matrix(1.00, 0.00, -0.00, -1.00, 336.5, 952.0)">i</text><text xml:space="preserve" font-family="AvenirNext-Regular,Avenir Next" font-size="82.0" fill="#5EDAFA" transform="matrix(1.00, 0.00, -0.00, -1.00, 357.0, 952.0)">C</text><text xml:space="preserve" font-family="AvenirNext-Regular,Avenir Next" font-size="82.0" fill="#5EDAFA" transform="matrix(1.00, 0.00, -0.00, -1.00, 414.5, 952.0)">a</text><text xml:space="preserve" font-family="AvenirNext-Regular,Avenir Next" font-size="82.0" fill="#5EDAFA" transform="matrix(1.00, 0.00, -0.00, -1.00, 458.3, 952.0)">l</text><text xml:space="preserve" font-family="AvenirNext-Regular,Avenir Next" font-size="82.0" fill="#5EDAFA" transform="matrix(1.00, 0.00, -0.00, -1.00, 479.0, 952.0)">e</text><text xml:space="preserve" font-family="AvenirNext-Regular,Avenir Next" font-size="82.0" fill="#5EDAFA" transform="matrix(1.00, 0.00, -0.00, -1.00, 525.9, 952.0)">n</text><text xml:space="preserve" font-family="AvenirNext-Regular,Avenir Next" font-size="82.0" fill="#5EDAFA" transform="matrix(1.00, 0.00, -0.00, -1.00, 573.5, 952.0)">d</text><text xml:space="preserve" font-family="AvenirNext-Regular,Avenir Next" font-size="82.0" fill="#5EDAFA" transform="matrix(1.00, 0.00, -0.00, -1.00, 625.8, 952.0)">a</text><text xml:space="preserve" font-family="AvenirNext-Regular,Avenir Next" font-size="82.0" fill="#5EDAFA" transform="matrix(1.00, 0.00, -0.00, -1.00, 669.6, 952.0)">r</text><text xml:space="preserve" font-family="AvenirNext-Regular,Avenir Next" font-size="82.0" fill="#5EDAFA" transform="matrix(1.00, 0.00, -0.00, -1.00, 699.1, 952.0)"> </text><text xml:space="preserve" font-family="AvenirNext-Regular,Avenir Next" font-size="82.0" fill="#5EDAFA" transform="matrix(1.00, 0.00, -0.00, -1.00, 719.6, 952.0)">M</text><text xml:space="preserve" font-family="AvenirNext-Regular,Avenir Next" font-size="82.0" fill="#5EDAFA" transform="matrix(1.00, 0.00, -0.00, -1.00, 792.2, 952.0)">e</text><text xml:space="preserve" font-family="AvenirNext-Regular,Avenir Next" font-size="82.0" fill="#5EDAFA" transform="matrix(1.00, 0.00, -0.00, -1.00, 839.1, 952.0)">s</text><text xml:space="preserve" font-family="AvenirNext-Regular,Avenir Next" font-size="82.0" fill="#5EDAFA" transform="matrix(1.00, 0.00, -0.00, -1.00, 875.5, 952.0)">s</text><text xml:space="preserve" font-family="AvenirNext-Regular,Avenir Next" font-size="82.0" fill="#5EDAFA" transform="matrix(1.00, 0.00, -0.00, -1.00, 912.0, 952.0)">a</text><text xml:space="preserve" font-family="AvenirNext-Regular,Avenir Next" font-size="82.0" fill="#5EDAFA" transform="matrix(1.00, 0.00, -0.00, -1.00, 955.7, 952.0)">g</text><text xml:space="preserve" font-family="AvenirNext-Regular,Avenir Next" font-size="82.0" fill="#5EDAFA" transform="matrix(1.00, 0.00, -0.00, -1.00, 1007.6, 952.0)">e</text><text xml:space="preserve" font-family="AvenirNext-Regular,Avenir Next" font-size="82.0" fill="#5EDAFA" transform="matrix(1.00, 0.00, -0.00, -1.00, 1054.5, 952.0)">-</text><text xml:space="preserve" font-family="AvenirNext-Regular,Avenir Next" font-size="82.0" fill="#5EDAFA" transform="matrix(1.00, 0.00, -0.00, -1.00, 1080.7, 952.0)">B</text><text xml:space="preserve" font-family="AvenirNext-Regular,Avenir Next" font-size="82.0" fill="#5EDAFA" transform="matrix(1.00, 0.00, -0.00, -1.00, 1132.9, 952.0)">a</text><text xml:space="preserve" font-family="AvenirNext-Regular,Avenir Next" font-size="82.0" fill="#5EDAFA" transform="matrix(1.00, 0.00, -0.00, -1.00, 1176.6, 952.0)">s</text><text xml:space="preserve" font-family="AvenirNext-Regular,Avenir Next" font-size="82.0" fill="#5EDAFA" transform="matrix(1.00, 0.00, -0.00, -1.00, 1213.1, 952.0)">e</text><text xml:space="preserve" font-family="AvenirNext-Regular,Avenir Next" font-size="82.0" fill="#5EDAFA" transform="matrix(1.00, 0.00, -0.00, -1.00, 1260.0, 952.0)">d</text><text xml:space="preserve" font-family="AvenirNext-Regular,Avenir Next" font-size="82.0" fill="#5EDAFA" transform="matrix(1.00, 0.00, -0.00, -1.00, 1312.2, 952.0)"> </text><text xml:space="preserve" font-family="AvenirNext-Regular,Avenir Next" font-size="82.0" fill="#5EDAFA" transform="matrix(1.00, 0.00, -0.00, -1.00, 176.0, 817.6)">I</text><text xml:space="preserve" font-family="AvenirNext-Regular,Avenir Next" font-size="82.0" fill="#5EDAFA" transform="matrix(1.00, 0.00, -0.00, -1.00, 197.3, 817.6)">n</text><text xml:space="preserve" font-family="AvenirNext-Regular,Avenir Next" font-size="82.0" fill="#5EDAFA" transform="matrix(1.00, 0.00, -0.00, -1.00, 245.0, 817.6)">t</text><text xml:space="preserve" font-family="AvenirNext-Regular,Avenir Next" font-size="82.0" fill="#5EDAFA" transform="matrix(1.00, 0.00, -0.00, -1.00, 271.0, 817.6)">e</text><text xml:space="preserve" font-family="AvenirNext-Regular,Avenir Next" font-size="82.0" fill="#5EDAFA" transform="matrix(1.00, 0.00, -0.00, -1.00, 317.9, 817.6)">r</text><text xml:space="preserve" font-family="AvenirNext-Regular,Avenir Next" font-size="82.0" fill="#5EDAFA" transform="matrix(1.00, 0.00, -0.00, -1.00, 345.9, 817.6)">o</text><text xml:space="preserve" font-family="AvenirNext-Regular,Avenir Next" font-size="82.0" fill="#5EDAFA" transform="matrix(1.00, 0.00, -0.00, -1.00, 396.0, 817.6)">p</text><text xml:space="preserve" font-family="AvenirNext-Regular,Avenir Next" font-size="82.0" fill="#5EDAFA" transform="matrix(1.00, 0.00, -0.00, -1.00, 448.1, 817.6)">e</text><text xml:space="preserve" font-family="AvenirNext-Regular,Avenir Next" font-size="82.0" fill="#5EDAFA" transform="matrix(1.00, 0.00, -0.00, -1.00, 495.0, 817.6)">r</text><text xml:space="preserve" font-family="AvenirNext-Regular,Avenir Next" font-size="82.0" fill="#5EDAFA" transform="matrix(1.00, 0.00, -0.00, -1.00, 523.5, 817.6)">a</text><text xml:space="preserve" font-family="AvenirNext-Regular,Avenir Next" font-size="82.0" fill="#5EDAFA" transform="matrix(1.00, 0.00, -0.00, -1.00, 567.3, 817.6)">b</text><text xml:space="preserve" font-family="AvenirNext-Regular,Avenir Next" font-size="82.0" fill="#5EDAFA" transform="matrix(1.00, 0.00, -0.00, -1.00, 619.5, 817.6)">i</text><text xml:space="preserve" font-family="AvenirNext-Regular,Avenir Next" font-size="82.0" fill="#5EDAFA" transform="matrix(1.00, 0.00, -0.00, -1.00, 640.0, 817.6)">l</text><text xml:space="preserve" font-family="AvenirNext-Regular,Avenir Next" font-size="82.0" fill="#5EDAFA" transform="matrix(1.00, 0.00, -0.00, -1.00, 660.7, 817.6)">i</text><text xml:space="preserve" font-family="AvenirNext-Regular,Avenir Next" font-size="82.0" fill="#5EDAFA" transform="matrix(1.00, 0.00, -0.00, -1.00, 681.2, 817.6)">t</text><text xml:space="preserve" font-family="AvenirNext-Regular,Avenir Next" font-size="82.0" fill="#5EDAFA" transform="matrix(1.00, 0.00, -0.00, -1.00, 707.2, 817.6)">y</text><text xml:space="preserve" font-family="AvenirNext-Regular,Avenir Next" font-size="82.0" fill="#5EDAFA" transform="matrix(1.00, 0.00, -0.00, -1.00, 747.2, 817.6)"> </text><text xml:space="preserve" font-family="AvenirNext-Regular,Avenir Next" font-size="82.0" fill="#5EDAFA" transform="matrix(1.00, 0.00, -0.00, -1.00, 767.7, 817.6)">P</text><text xml:space="preserve" font-family="AvenirNext-Regular,Avenir Next" font-size="82.0" fill="#5EDAFA" transform="matrix(1.00, 0.00, -0.00, -1.00, 811.3, 817.6)">r</text><text xml:space="preserve" font-family="AvenirNext-Regular,Avenir Next" font-size="82.0" fill="#5EDAFA" transform="matrix(1.00, 0.00, -0.00, -1.00, 839.4, 817.6)">o</text><text xml:space="preserve" font-family="AvenirNext-Regular,Avenir Next" font-size="82.0" fill="#5EDAFA" transform="matrix(1.00, 0.00, -0.00, -1.00, 889.5, 817.6)">t</text><text xml:space="preserve" font-family="AvenirNext-Regular,Avenir Next" font-size="82.0" fill="#5EDAFA" transform="matrix(1.00, 0.00, -0.00, -1.00, 915.5, 817.6)">o</text><text xml:space="preserve" font-family="AvenirNext-Regular,Avenir Next" font-size="82.0" fill="#5EDAFA" transform="matrix(1.00, 0.00, -0.00, -1.00, 965.6, 817.6)">c</text><text xml:space="preserve" font-family="AvenirNext-Regular,Avenir Next" font-size="82.0" fill="#5EDAFA" transform="matrix(1.00, 0.00, -0.00, -1.00, 1006.6, 817.6)">o</text><text xml:space="preserve" font-family="AvenirNext-Regular,Avenir Next" font-size="82.0" fill="#5EDAFA" transform="matrix(1.00, 0.00, -0.00, -1.00, 1056.7, 817.6)">l</text><text xml:space="preserve" font-family="AvenirNext-Regular,Avenir Next" font-size="82.0" fill="#5EDAFA" transform="matrix(1.00, 0.00, -0.00, -1.00, 1077.3, 817.6)"> </text><text xml:space="preserve" font-family="AvenirNext-Regular,Avenir Next" font-size="82.0" fill="#5EDAFA" transform="matrix(1.00, 0.00, -0.00, -1.00, 1097.8, 817.6)">(</text><text xml:space="preserve" font-family="AvenirNext-Regular,Avenir Next" font-size="82.0" fill="#5EDAFA" transform="matrix(1.00, 0.00, -0.00, -1.00, 1122.4, 817.6)">i</text><text xml:space="preserve" font-family="AvenirNext-Regular,Avenir Next" font-size="82.0" fill="#5EDAFA" transform="matrix(1.00, 0.00, -0.00, -1.00, 1142.9, 817.6)">M</text><text xml:space="preserve" font-family="AvenirNext-Regular,Avenir Next" font-size="82.0" fill="#5EDAFA" transform="matrix(1.00, 0.00, -0.00, -1.00, 1215.6, 817.6)">I</text><text xml:space="preserve" font-family="AvenirNext-Regular,Avenir Next" font-size="82.0" fill="#5EDAFA" transform="matrix(1.00, 0.00, -0.00, -1.00, 1236.9, 817.6)">P</text><text xml:space="preserve" font-family="AvenirNext-Regular,Avenir Next" font-size="82.0" fill="#5EDAFA" transform="matrix(1.00, 0.00, -0.00, -1.00, 1284.5, 817.6)">)</text><text xml:space="preserve" font-family="AvenirNext-Regular,Avenir Next" font-size="82.0" fill="#5EDAFA" transform="matrix(1.00, 0.00, -0.00, -1.00, 1309.1, 817.6)"> </text></g></svg>