<?xml version="1.0" encoding="UTF-8" standalone="no"?><svg xmlns="http://www.w3.org/2000/svg" xmlns:xlink="http://www.w3.org/1999/xlink" clip-rule="evenodd" stroke-miterlimit="10" viewBox="0 0 1666 91"><desc>SVG generated by Keynote</desc><defs></defs><g transform="matrix(1.00, 0.00, -0.00, -1.00, 0.0, 91.0)"><text xml:space="preserve" font-family="AvenirNext-Regular,Avenir Next" font-size="61.5" fill="#5EDAFA" transform="matrix(1.00, 0.00, -0.00, -1.00, 0.6, 28.0)">•</text><text xml:space="preserve" font-family="AvenirNext-Regular,Avenir Next" font-size="82.0" fill="#5EDAFA" transform="matrix(1.00, 0.00, -0.00, -1.00, 79.4, 22.0)">W</text><text xml:space="preserve" font-family="AvenirNext-Regular,Avenir Next" font-size="82.0" fill="#5EDAFA" transform="matrix(1.00, 0.00, -0.00, -1.00, 156.2, 22.0)">e</text><text xml:space="preserve" font-family="AvenirNext-Regular,Avenir Next" font-size="82.0" fill="#5EDAFA" transform="matrix(1.00, 0.00, -0.00, -1.00, 203.1, 22.0)"> </text><text xml:space="preserve" font-family="AvenirNext-Regular,Avenir Next" font-size="82.0" fill="#5EDAFA" transform="matrix(1.00, 0.00, -0.00, -1.00, 223.6, 22.0)">c</text><text xml:space="preserve" font-family="AvenirNext-Regular,Avenir Next" font-size="82.0" fill="#5EDAFA" transform="matrix(1.00, 0.00, -0.00, -1.00, 264.6, 22.0)">o</text><text xml:space="preserve" font-family="AvenirNext-Regular,Avenir Next" font-size="82.0" fill="#5EDAFA" transform="matrix(1.00, 0.00, -0.00, -1.00, 314.7, 22.0)">u</text><text xml:space="preserve" font-family="AvenirNext-Regular,Avenir Next" font-size="82.0" fill="#5EDAFA" transform="matrix(1.00, 0.00, -0.00, -1.00, 362.3, 22.0)">l</text><text xml:space="preserve" font-family="AvenirNext-Regular,Avenir Next" font-size="82.0" fill="#5EDAFA" transform="matrix(1.00, 0.00, -0.00, -1.00, 383.0, 22.0)">d</text><text xml:space="preserve" font-family="AvenirNext-Regular,Avenir Next" font-size="82.0" fill="#5EDAFA" transform="matrix(1.00, 0.00, -0.00, -1.00, 435.2, 22.0)"> </text><text xml:space="preserve" font-family="AvenirNext-Regular,Avenir Next" font-size="82.0" fill="#5EDAFA" transform="matrix(1.00, 0.00, -0.00, -1.00, 455.7, 22.0)">b</text><text xml:space="preserve" font-family="AvenirNext-Regular,Avenir Next" font-size="82.0" fill="#5EDAFA" transform="matrix(1.00, 0.00, -0.00, -1.00, 508.0, 22.0)">u</text><text xml:space="preserve" font-family="AvenirNext-Regular,Avenir Next" font-size="82.0" fill="#5EDAFA" transform="matrix(1.00, 0.00, -0.00, -1.00, 555.6, 22.0)">i</text><text xml:space="preserve" font-family="AvenirNext-Regular,Avenir Next" font-size="82.0" fill="#5EDAFA" transform="matrix(1.00, 0.00, -0.00, -1.00, 576.1, 22.0)">l</text><text xml:space="preserve" font-family="AvenirNext-Regular,Avenir Next" font-size="82.0" fill="#5EDAFA" transform="matrix(1.00, 0.00, -0.00, -1.00, 596.8, 22.0)">d</text><text xml:space="preserve" font-family="AvenirNext-Regular,Avenir Next" font-size="82.0" fill="#5EDAFA" transform="matrix(1.00, 0.00, -0.00, -1.00, 649.0, 22.0)"> </text><text xml:space="preserve" font-family="AvenirNext-Regular,Avenir Next" font-size="82.0" fill="#5EDAFA" transform="matrix(1.00, 0.00, -0.00, -1.00, 669.5, 22.0)">o</text><text xml:space="preserve" font-family="AvenirNext-Regular,Avenir Next" font-size="82.0" fill="#5EDAFA" transform="matrix(1.00, 0.00, -0.00, -1.00, 719.6, 22.0)">t</text><text xml:space="preserve" font-family="AvenirNext-Regular,Avenir Next" font-size="82.0" fill="#5EDAFA" transform="matrix(1.00, 0.00, -0.00, -1.00, 745.6, 22.0)">h</text><text xml:space="preserve" font-family="AvenirNext-Regular,Avenir Next" font-size="82.0" fill="#5EDAFA" transform="matrix(1.00, 0.00, -0.00, -1.00, 793.4, 22.0)">e</text><text xml:space="preserve" font-family="AvenirNext-Regular,Avenir Next" font-size="82.0" fill="#5EDAFA" transform="matrix(1.00, 0.00, -0.00, -1.00, 840.3, 22.0)">r</text><text xml:space="preserve" font-family="AvenirNext-Regular,Avenir Next" font-size="82.0" fill="#5EDAFA" transform="matrix(1.00, 0.00, -0.00, -1.00, 869.8, 22.0)"> </text><text xml:space="preserve" font-family="AvenirNext-Regular,Avenir Next" font-size="82.0" fill="#5EDAFA" transform="matrix(1.00, 0.00, -0.00, -1.00, 890.3, 22.0)">s</text><text xml:space="preserve" font-family="AvenirNext-Regular,Avenir Next" font-size="82.0" fill="#5EDAFA" transform="matrix(1.00, 0.00, -0.00, -1.00, 926.7, 22.0)">t</text><text xml:space="preserve" font-family="AvenirNext-Regular,Avenir Next" font-size="82.0" fill="#5EDAFA" transform="matrix(1.00, 0.00, -0.00, -1.00, 952.7, 22.0)">u</text><text xml:space="preserve" font-family="AvenirNext-Regular,Avenir Next" font-size="82.0" fill="#5EDAFA" transform="matrix(1.00, 0.00, -0.00, -1.00, 1000.4, 22.0)">f</text><text xml:space="preserve" font-family="AvenirNext-Regular,Avenir Next" font-size="82.0" fill="#5EDAFA" transform="matrix(1.00, 0.00, -0.00, -1.00, 1023.1, 22.0)">f</text><text xml:space="preserve" font-family="AvenirNext-Regular,Avenir Next" font-size="82.0" fill="#5EDAFA" transform="matrix(1.00, 0.00, -0.00, -1.00, 1049.3, 22.0)"> </text><text xml:space="preserve" font-family="AvenirNext-Regular,Avenir Next" font-size="82.0" fill="#5EDAFA" transform="matrix(1.00, 0.00, -0.00, -1.00, 1069.8, 22.0)">i</text><text xml:space="preserve" font-family="AvenirNext-Regular,Avenir Next" font-size="82.0" fill="#5EDAFA" transform="matrix(1.00, 0.00, -0.00, -1.00, 1090.3, 22.0)">n</text><text xml:space="preserve" font-family="AvenirNext-Regular,Avenir Next" font-size="82.0" fill="#5EDAFA" transform="matrix(1.00, 0.00, -0.00, -1.00, 1137.9, 22.0)"> </text><text xml:space="preserve" font-family="AvenirNext-Regular,Avenir Next" font-size="82.0" fill="#5EDAFA" transform="matrix(1.00, 0.00, -0.00, -1.00, 1158.4, 22.0)">t</text><text xml:space="preserve" font-family="AvenirNext-Regular,Avenir Next" font-size="82.0" fill="#5EDAFA" transform="matrix(1.00, 0.00, -0.00, -1.00, 1184.4, 22.0)">h</text><text xml:space="preserve" font-family="AvenirNext-Regular,Avenir Next" font-size="82.0" fill="#5EDAFA" transform="matrix(1.00, 0.00, -0.00, -1.00, 1232.2, 22.0)">e</text><text xml:space="preserve" font-family="AvenirNext-Regular,Avenir Next" font-size="82.0" fill="#5EDAFA" transform="matrix(1.00, 0.00, -0.00, -1.00, 1279.1, 22.0)"> </text><text xml:space="preserve" font-family="AvenirNext-Regular,Avenir Next" font-size="82.0" fill="#5EDAFA" transform="matrix(1.00, 0.00, -0.00, -1.00, 1299.6, 22.0)">s</text><text xml:space="preserve" font-family="AvenirNext-Regular,Avenir Next" font-size="82.0" fill="#5EDAFA" transform="matrix(1.00, 0.00, -0.00, -1.00, 1336.0, 22.0)">a</text><text xml:space="preserve" font-family="AvenirNext-Regular,Avenir Next" font-size="82.0" fill="#5EDAFA" transform="matrix(1.00, 0.00, -0.00, -1.00, 1379.8, 22.0)">m</text><text xml:space="preserve" font-family="AvenirNext-Regular,Avenir Next" font-size="82.0" fill="#5EDAFA" transform="matrix(1.00, 0.00, -0.00, -1.00, 1452.2, 22.0)">e</text><text xml:space="preserve" font-family="AvenirNext-Regular,Avenir Next" font-size="82.0" fill="#5EDAFA" transform="matrix(1.00, 0.00, -0.00, -1.00, 1499.1, 22.0)"> </text><text xml:space="preserve" font-family="AvenirNext-Regular,Avenir Next" font-size="82.0" fill="#5EDAFA" transform="matrix(1.00, 0.00, -0.00, -1.00, 1519.6, 22.0)">w</text><text xml:space="preserve" font-family="AvenirNext-Regular,Avenir Next" font-size="82.0" fill="#5EDAFA" transform="matrix(1.00, 0.00, -0.00, -1.00, 1580.8, 22.0)">a</text><text xml:space="preserve" font-family="AvenirNext-Regular,Avenir Next" font-size="82.0" fill="#5EDAFA" transform="matrix(1.00, 0.00, -0.00, -1.00, 1624.6, 22.0)">y</text><text xml:space="preserve" font-family="AvenirNext-Regular,Avenir Next" font-size="82.0" fill="#5EDAFA" transform="matrix(1.00, 0.00, -0.00, -1.00, 1664.6, 22.0)"> </text></g></svg>